<svg xmlns="http://www.w3.org/2000/svg" width="600" height="387" viewBox="0 0 600 387">
<g>
<path d="M 381.37 268.71 C384.26,270.36 385.11,270.30 390.07,268.08 C394.01,266.32 394.66,266.28 398.10,267.66 C403.12,269.67 406.77,267.89 406.12,263.75 C406.05,263.34 406.45,263.00 407.00,263.00 C408.56,263.00 408.17,258.39 406.50,257.00 C405.59,256.24 403.78,255.99 401.89,256.37 C399.28,256.89 398.89,256.73 399.43,255.33 C399.78,254.41 399.51,253.32 398.84,252.90 C398.03,252.40 398.63,251.89 400.55,251.42 C404.01,250.57 407.36,248.06 407.83,245.98 C408.01,245.16 408.80,243.79 409.58,242.92 C410.36,242.05 411.00,240.89 411.00,240.33 C411.00,239.77 411.90,238.50 413.00,237.50 C414.10,236.50 415.00,234.91 415.00,233.96 C415.00,232.06 418.51,230.99 422.35,231.73 C424.26,232.09 424.68,232.77 424.60,235.34 C424.55,237.08 423.71,239.23 422.75,240.12 C421.79,241.01 421.00,242.47 421.00,243.37 C421.00,244.27 420.34,245.00 419.54,245.00 C417.99,245.00 415.69,248.36 416.60,249.27 C417.10,249.77 418.32,259.34 418.16,261.50 C418.11,262.05 417.80,263.67 417.45,265.11 C416.64,268.46 418.99,269.49 423.62,267.82 C427.51,266.41 428.47,264.37 427.03,260.57 C426.46,259.08 426.00,257.01 426.00,255.96 C426.00,254.30 426.35,254.18 428.67,255.06 C431.76,256.24 432.96,255.07 432.98,250.84 C432.99,249.29 434.46,246.44 436.53,243.96 C438.48,241.64 439.83,239.50 439.54,239.21 C438.33,238.00 443.55,236.38 445.67,237.30 C447.10,237.93 448.95,237.86 451.07,237.13 C453.48,236.29 454.65,236.29 455.68,237.15 C456.71,238.00 457.69,238.01 459.53,237.17 C462.08,236.01 462.93,232.48 460.82,231.77 C459.15,231.22 460.77,229.00 462.86,229.00 C463.82,229.00 465.09,229.49 465.70,230.10 C467.53,231.93 470.84,230.18 471.19,227.20 C471.43,225.12 472.11,224.43 474.17,224.19 C477.23,223.84 478.58,221.40 476.86,219.33 C475.88,218.15 476.19,218.00 478.73,218.45 C482.58,219.13 484.82,216.97 482.58,214.73 C481.27,213.41 481.55,213.17 485.03,212.61 C487.69,212.19 489.50,211.17 490.61,209.48 C492.20,207.05 492.62,206.97 503.37,206.95 C559.59,206.83 563.75,206.98 562.43,209.12 C562.10,209.65 562.38,210.76 563.07,211.58 C564.06,212.78 566.14,212.97 573.65,212.57 C578.79,212.30 583.87,211.61 584.94,211.03 C587.89,209.45 592.25,211.66 590.96,214.08 C589.74,216.35 593.12,219.00 597.22,219.00 L 600.00 219.00 L 600.00 387.00 L 0.00 387.00 L 0.00 0.00 L 600.00 0.00 L 600.00 131.00 L 596.25 130.85 C583.86,130.36 570.32,130.62 569.25,131.37 C568.56,131.85 568.00,133.02 568.00,133.97 C568.00,135.44 566.58,135.79 558.31,136.33 C547.40,137.05 545.26,138.13 548.87,141.08 C550.81,142.67 551.01,143.28 550.00,144.51 C549.01,145.70 549.02,146.32 550.06,147.58 C551.15,148.88 551.13,149.31 549.94,150.06 C547.52,151.59 546.74,151.12 547.26,148.44 C548.05,144.26 543.83,141.56 540.15,143.89 C539.36,144.39 537.57,144.29 535.90,143.66 C533.53,142.76 532.70,142.87 531.34,144.23 C530.00,145.57 529.91,146.19 530.90,147.38 C531.90,148.59 531.76,149.06 530.13,149.93 C527.82,151.17 525.84,149.34 528.02,147.99 C529.81,146.88 528.37,143.78 526.25,144.18 C525.29,144.36 524.07,145.50 523.54,146.70 C522.33,149.44 520.38,149.88 511.13,149.54 C503.92,149.27 503.72,149.33 502.13,152.16 C501.23,153.75 499.46,155.32 498.20,155.65 C496.93,155.98 487.26,156.00 476.71,155.71 C457.45,155.18 453.29,155.70 454.38,158.54 C455.23,160.77 453.75,161.08 440.49,161.45 C426.31,161.85 423.93,162.72 426.48,166.61 C427.31,167.88 428.00,169.82 428.00,170.91 C428.00,173.48 429.71,174.48 431.53,172.97 C432.40,172.25 432.75,170.87 432.42,169.52 C431.81,167.09 433.85,165.62 436.45,166.62 C437.61,167.07 437.67,167.56 436.73,169.06 C435.82,170.52 435.83,171.23 436.78,172.18 C439.07,174.47 438.25,176.29 435.25,175.57 C433.74,175.21 430.70,174.82 428.51,174.70 C424.92,174.52 424.47,174.20 424.00,171.50 C423.40,168.01 420.12,166.94 417.97,169.53 C416.90,170.82 416.87,171.56 417.82,173.08 C418.88,174.78 418.73,175.00 416.57,175.00 C413.90,175.00 412.36,173.51 413.98,172.51 C415.86,171.35 415.02,169.04 412.49,168.41 C409.42,167.64 406.68,169.65 407.34,172.18 C407.77,173.84 407.44,174.13 405.25,173.93 C404.84,173.90 404.64,173.19 404.81,172.36 C405.19,170.53 403.24,168.00 401.45,168.00 C399.37,168.00 396.88,171.05 397.47,172.89 C397.85,174.09 397.41,174.57 395.94,174.57 C394.45,174.57 394.01,174.07 394.35,172.77 C395.08,170.00 392.33,167.75 389.84,169.09 C388.37,169.87 387.03,169.84 384.92,168.96 C382.52,167.97 381.59,168.04 379.60,169.34 C377.48,170.73 377.03,170.74 375.97,169.46 C374.50,167.70 371.83,167.57 370.22,169.18 C369.31,170.09 368.48,170.06 366.60,169.05 C364.80,168.09 363.39,168.02 361.21,168.78 C359.59,169.34 356.06,169.65 353.38,169.46 C347.15,169.02 345.00,169.67 345.00,172.00 C345.00,173.03 344.14,174.14 343.09,174.47 C342.04,174.81 340.45,176.19 339.57,177.54 C338.32,179.43 337.09,180.00 334.18,180.00 C330.39,180.00 328.00,181.38 328.00,183.58 C328.00,185.35 334.55,186.63 343.25,186.56 C347.51,186.53 351.00,186.84 351.00,187.25 C351.00,187.66 350.13,188.00 349.06,188.00 C347.99,188.00 346.88,188.39 346.58,188.87 C346.29,189.35 344.28,189.26 342.10,188.68 C337.93,187.57 335.00,188.76 335.00,191.57 C335.00,192.30 333.80,193.48 332.32,194.20 C328.80,195.92 328.29,197.80 331.09,198.84 C334.51,200.10 339.42,198.77 339.85,196.46 C340.05,195.38 340.67,193.94 341.23,193.25 C342.47,191.72 346.64,191.60 347.54,193.07 C347.91,193.66 348.92,193.86 349.79,193.53 C350.66,193.19 354.53,192.76 358.38,192.57 C366.38,192.17 370.32,193.42 369.47,196.08 C368.66,198.64 370.44,199.28 378.13,199.23 C384.55,199.19 386.48,199.97 383.91,201.55 C383.31,201.92 383.06,203.11 383.34,204.18 C384.35,208.06 375.23,219.08 370.23,220.01 C368.31,220.36 367.40,221.21 367.17,222.87 C366.98,224.17 365.97,225.46 364.92,225.73 C363.84,226.01 363.00,227.10 363.00,228.23 C363.00,229.98 363.44,230.14 366.62,229.54 L 370.25 228.86 L 369.59 232.38 C369.03,235.37 369.27,236.09 371.21,237.20 C372.47,237.91 373.63,239.62 373.78,241.00 C373.94,242.38 374.16,244.47 374.28,245.65 C374.40,246.83 375.28,248.65 376.24,249.71 C377.89,251.53 377.88,251.82 375.99,255.53 C374.89,257.67 374.00,259.83 374.00,260.32 C374.00,261.68 378.97,267.34 381.37,268.71 ZM 0.67 237.33 C2.40,239.07 6.02,237.86 7.47,235.07 C8.48,233.10 9.88,232.03 11.72,231.82 C13.38,231.62 14.91,230.59 15.61,229.17 C17.41,225.54 18.64,224.70 22.72,224.29 C27.66,223.79 29.39,221.92 29.45,217.05 C29.49,213.54 29.77,213.09 31.77,213.26 C33.09,213.36 33.85,213.95 33.58,214.65 C32.99,216.18 35.57,218.38 36.96,217.53 C37.53,217.17 38.00,216.01 38.00,214.94 C38.00,213.87 38.44,213.00 38.98,213.00 C39.52,213.00 41.21,211.86 42.73,210.46 C44.25,209.07 46.96,207.05 48.75,205.98 C51.04,204.61 52.00,203.29 52.00,201.51 C52.00,199.42 52.47,199.00 54.83,199.00 C58.31,199.00 59.34,198.11 57.88,196.35 C56.96,195.25 56.29,195.31 53.98,196.67 C51.38,198.21 51.07,198.21 49.52,196.66 C48.61,195.75 47.33,194.99 46.68,194.97 C46.03,194.95 46.33,194.30 47.35,193.53 C48.73,192.49 49.88,192.38 51.80,193.12 C55.22,194.41 63.13,192.20 63.77,189.76 C64.02,188.80 64.55,188.22 64.93,188.46 C66.37,189.35 72.00,185.01 72.00,183.01 C72.00,181.66 72.66,181.00 74.03,181.00 C76.46,181.00 77.66,178.50 76.12,176.65 C75.51,175.91 75.31,175.02 75.68,174.66 C76.83,173.50 81.00,173.95 81.11,175.25 C81.16,175.94 81.28,177.40 81.36,178.50 C81.47,180.14 82.21,180.50 85.50,180.50 C88.69,180.50 89.70,180.96 90.49,182.76 C91.04,184.00 92.27,185.27 93.24,185.58 C94.40,185.94 95.00,187.15 95.00,189.10 C95.00,190.82 95.63,192.31 96.51,192.64 C98.62,193.45 101.13,191.11 100.79,188.65 C100.58,187.19 101.21,186.42 103.00,185.96 C106.05,185.16 110.00,188.29 110.00,191.50 C110.00,193.30 109.53,193.58 107.12,193.23 C104.97,192.92 103.85,193.38 102.65,195.09 C100.48,198.18 102.22,200.33 106.18,199.46 C107.76,199.11 110.81,199.13 112.96,199.49 C115.97,200.00 116.95,200.66 117.19,202.33 C117.47,204.31 118.16,204.53 125.25,204.79 L 133.00 205.08 L 133.00 207.98 C133.00,209.58 133.44,211.15 133.98,211.49 C135.49,212.42 139.00,210.14 139.02,208.21 C139.04,206.84 139.42,206.99 140.92,208.94 C142.38,210.84 142.57,211.86 141.76,213.62 C139.79,217.95 141.27,219.00 149.36,219.00 L 156.78 219.00 L 157.25 222.75 C157.51,224.81 157.28,227.06 156.74,227.75 C154.79,230.22 157.91,232.12 163.41,231.80 C168.35,231.51 168.50,231.41 168.42,228.50 C168.34,225.31 169.42,224.04 172.25,224.02 C173.45,224.00 174.00,224.78 174.00,226.46 C174.00,229.08 176.49,231.00 179.88,231.00 C182.43,231.00 182.72,230.47 183.15,225.00 C183.49,220.62 183.42,220.50 180.50,220.34 C174.65,220.03 174.48,219.93 177.26,218.42 C179.59,217.16 179.86,216.61 178.98,214.96 C178.19,213.49 178.25,213.00 179.21,212.98 C179.92,212.98 181.11,212.58 181.86,212.11 C183.60,211.01 182.43,207.00 180.37,207.00 C179.36,207.00 179.06,206.39 179.46,205.14 C180.20,202.81 177.99,200.89 174.96,201.24 C173.23,201.43 172.49,200.89 172.05,199.09 C171.19,195.62 168.52,194.19 165.93,195.81 C164.61,196.64 163.41,196.77 162.67,196.19 C162.03,195.68 159.88,194.74 157.90,194.10 C155.74,193.41 153.84,191.95 153.17,190.47 C152.50,189.01 151.20,188.00 149.99,188.00 C148.29,188.00 148.10,187.67 148.93,186.13 C149.48,185.10 149.68,184.02 149.38,183.71 C149.08,183.41 149.77,182.66 150.91,182.05 C153.12,180.86 153.72,177.57 151.93,176.46 C151.24,176.03 151.46,175.15 152.57,173.92 C153.96,172.38 154.04,171.76 153.02,170.52 C151.95,169.23 152.30,168.77 155.34,167.50 C158.17,166.32 159.45,166.25 161.46,167.16 C163.36,168.03 164.62,168.04 166.50,167.18 C168.25,166.39 169.79,166.35 171.66,167.06 C173.40,167.72 175.30,167.74 177.08,167.12 C178.59,166.59 180.08,166.42 180.40,166.73 C181.42,167.75 194.26,167.93 196.09,166.95 C197.90,165.98 199.89,167.45 198.56,168.77 C198.21,169.12 188.96,169.43 178.01,169.46 C157.16,169.51 154.17,170.08 157.00,173.50 C158.00,174.70 158.03,175.37 157.16,176.24 C155.28,178.12 155.81,180.31 159.09,184.30 C160.79,186.36 162.30,188.82 162.43,189.77 C162.87,192.82 166.32,193.50 180.56,193.38 C188.23,193.32 194.86,193.47 195.31,193.73 C195.76,193.98 195.31,194.80 194.31,195.54 C192.78,196.67 192.69,197.19 193.76,198.94 C194.45,200.07 194.59,201.00 194.08,201.00 C192.58,201.00 191.81,204.70 192.89,206.69 C193.43,207.68 194.13,209.69 194.43,211.14 C194.95,213.65 195.23,213.75 199.99,213.30 C204.26,212.90 204.91,213.07 204.39,214.42 C204.06,215.29 203.31,216.00 202.74,216.00 C202.16,216.00 202.50,216.90 203.50,218.00 C204.64,219.26 204.86,220.00 204.09,220.00 C203.39,220.00 203.00,220.97 203.18,222.25 C203.46,224.20 204.07,224.49 207.75,224.41 C212.78,224.31 214.16,223.32 211.75,221.56 C209.50,219.91 209.50,218.00 211.75,218.02 C214.27,218.04 216.87,220.00 215.25,220.66 C214.56,220.94 214.00,221.82 214.00,222.62 C214.00,224.56 218.05,226.00 220.25,224.85 C222.55,223.64 222.55,220.01 220.25,219.97 C218.67,219.94 218.66,219.82 220.09,218.72 C220.96,218.05 221.68,216.82 221.68,216.00 C221.68,215.18 222.00,213.51 222.39,212.30 C222.88,210.79 222.53,209.53 221.29,208.29 C220.29,207.29 219.64,205.65 219.83,204.63 C220.36,201.89 218.64,200.76 214.06,200.82 C211.55,200.85 210.20,200.48 210.58,199.87 C210.92,199.32 211.83,199.11 212.60,199.40 C215.21,200.40 214.02,198.12 211.00,196.34 C206.99,193.97 207.22,193.00 211.80,193.00 C213.89,193.00 216.03,192.57 216.56,192.04 C217.18,191.42 219.23,191.69 222.26,192.78 C225.95,194.11 227.40,194.23 228.84,193.33 C229.97,192.62 231.22,192.53 232.09,193.08 C234.20,194.41 237.61,194.18 238.91,192.61 C239.81,191.52 239.67,190.81 238.28,189.42 C237.30,188.44 236.50,186.93 236.50,186.07 C236.50,185.21 235.14,183.90 233.47,183.16 C231.80,182.43 229.68,180.52 228.77,178.91 C227.51,176.73 226.35,176.00 224.12,176.00 C221.63,176.00 220.97,175.45 220.02,172.55 C219.23,170.17 219.19,168.51 219.89,167.20 C221.09,164.95 219.61,163.00 216.71,163.00 C215.66,163.00 214.59,162.15 214.32,161.10 C213.77,159.01 206.13,156.35 203.53,157.35 C202.68,157.68 200.77,157.48 199.28,156.92 C197.34,156.18 195.95,156.23 194.36,157.08 C191.84,158.42 187.61,157.48 189.88,156.08 C190.60,155.63 191.03,154.41 190.82,153.38 C190.52,151.89 189.59,151.52 186.37,151.58 C182.34,151.65 182.30,151.62 182.40,148.08 C182.50,144.57 182.42,144.49 178.25,144.19 C174.76,143.94 173.91,143.47 173.42,141.53 C172.71,138.73 168.86,137.47 165.87,139.07 C164.36,139.88 163.48,139.88 162.69,139.09 C161.13,137.53 158.94,137.74 156.83,139.65 C155.18,141.15 154.83,141.16 153.25,139.77 C152.29,138.93 150.49,137.93 149.25,137.55 C148.01,137.17 147.00,136.42 147.00,135.87 C147.00,135.32 147.79,135.09 148.75,135.37 C150.44,135.86 160.79,136.36 164.14,136.12 C166.45,135.95 167.36,132.93 165.62,131.19 C164.61,130.18 163.31,129.97 161.33,130.50 C157.22,131.60 147.70,131.75 146.31,130.73 C144.66,129.52 140.87,131.73 141.22,133.70 C141.37,134.58 140.94,135.49 140.25,135.73 C139.51,135.99 139.00,135.32 139.00,134.12 C139.00,131.30 135.63,129.59 132.92,131.04 C129.93,132.64 128.00,131.51 128.00,128.14 C128.00,124.73 125.37,123.20 123.22,125.35 C122.15,126.43 122.06,127.25 122.88,128.78 C123.69,130.30 123.63,131.06 122.61,131.91 C120.94,133.29 119.35,131.64 118.85,128.00 C118.58,126.09 117.91,125.50 116.00,125.50 C113.86,125.50 113.50,125.96 113.50,128.67 C113.50,132.73 112.38,133.81 110.31,131.74 C108.93,130.36 108.88,129.84 110.00,128.50 C111.12,127.15 111.06,126.63 109.65,125.22 C107.52,123.09 104.65,124.60 104.17,128.10 C103.69,131.50 102.37,132.56 100.53,131.02 C99.35,130.05 99.25,129.41 100.10,128.38 C100.72,127.64 100.95,126.32 100.62,125.46 C100.29,124.60 100.67,122.90 101.47,121.69 C104.32,117.33 102.86,117.04 79.47,117.28 C58.99,117.49 57.50,117.62 57.17,119.36 C56.64,122.11 58.55,123.44 62.63,123.16 C65.94,122.94 66.20,123.12 65.67,125.16 C65.35,126.39 65.58,127.99 66.18,128.72 C67.82,130.70 66.69,131.22 60.81,131.18 C55.16,131.14 53.46,131.15 53.12,130.47 C52.98,130.18 53.09,129.77 53.25,129.17 C53.26,129.13 53.27,129.09 53.28,129.05 C53.99,126.34 51.73,123.50 49.54,124.35 C48.28,124.83 47.96,125.69 48.39,127.41 C49.16,130.48 48.19,130.80 39.03,130.42 C31.21,130.11 29.00,130.92 29.00,134.12 C29.00,135.69 28.22,136.00 24.25,136.02 C17.91,136.04 16.53,137.05 16.83,141.49 C17.04,144.68 16.86,145.00 15.28,144.17 C14.30,143.65 10.47,143.23 6.76,143.24 L 0.01 143.25 L 0.06 168.71 C0.09,188.11 0.38,194.07 1.30,193.73 C1.96,193.48 3.40,193.63 4.50,194.07 C6.20,194.74 6.23,194.87 4.75,194.93 C2.83,195.01 2.22,199.00 4.12,199.00 C4.90,199.00 4.86,199.46 4.00,200.50 C3.32,201.32 2.14,202.00 1.38,202.00 C0.36,202.00 0.00,203.58 0.00,208.04 C0.00,213.06 0.27,214.04 1.61,213.79 C2.78,213.58 3.30,214.39 3.50,216.75 C3.71,219.36 3.40,220.00 1.88,220.00 C0.19,220.00 0.00,220.84 0.00,228.33 C0.00,232.92 0.30,236.97 0.67,237.33 ZM 479.55 180.14 C479.94,181.39 479.25,181.87 476.56,182.18 C473.38,182.55 473.20,182.44 474.53,180.97 C476.53,178.75 476.38,177.27 474.00,176.00 C472.59,175.25 471.42,175.24 470.02,175.99 C468.74,176.67 467.42,176.71 466.27,176.10 C465.30,175.57 463.83,174.95 463.00,174.70 C462.05,174.42 461.50,173.01 461.50,170.88 C461.50,168.14 461.92,167.44 463.75,167.18 C466.03,166.86 466.84,168.36 465.00,169.50 C463.19,170.62 463.94,173.75 466.16,174.33 C470.11,175.36 474.06,171.39 470.98,169.49 C469.05,168.29 471.26,166.80 474.12,167.37 C475.71,167.69 478.18,167.50 479.62,166.95 C483.26,165.57 485.77,167.49 483.54,169.96 C481.49,172.22 483.33,174.00 487.70,174.00 C490.21,174.00 491.00,173.57 491.00,172.20 C491.00,171.21 490.47,169.87 489.82,169.22 C489.17,168.57 488.95,167.72 489.33,167.33 C489.72,166.95 490.57,167.17 491.22,167.82 C491.87,168.47 493.72,169.00 495.32,169.00 C497.82,169.00 498.06,169.22 496.98,170.52 C495.95,171.76 496.05,172.39 497.50,174.00 C498.93,175.58 499.04,176.25 498.05,177.44 C496.42,179.41 497.55,181.00 500.59,181.00 C503.43,181.00 504.76,178.63 503.07,176.58 C502.19,175.52 502.22,175.09 503.21,174.76 C505.42,174.02 508.14,175.18 507.59,176.63 C506.76,178.79 508.04,181.00 510.11,181.00 C511.93,181.00 512.44,180.00 512.05,177.15 C511.95,176.41 512.58,175.01 513.46,174.05 C514.33,173.08 514.81,171.66 514.51,170.89 C514.13,169.90 514.91,169.45 517.25,169.32 C519.81,169.18 520.76,169.66 521.64,171.52 C522.89,174.17 522.49,175.00 519.96,175.00 C519.01,175.00 517.64,175.73 516.90,176.61 C515.76,178.00 515.88,178.49 517.78,180.02 C519.00,181.01 520.00,181.97 520.00,182.16 C520.00,182.69 484.79,182.12 484.25,181.58 C483.55,180.89 487.98,180.12 491.50,180.33 C493.89,180.46 494.50,180.09 494.50,178.50 C494.50,176.71 493.77,176.49 487.50,176.34 C480.31,176.17 478.58,177.00 479.55,180.14 ZM 450.86 198.91 C453.09,200.29 449.87,201.91 447.02,200.83 C445.23,200.15 444.90,199.68 445.84,199.10 C446.81,198.50 446.43,197.69 444.32,195.89 C442.22,194.10 441.47,192.53 441.39,189.74 C441.28,186.43 441.55,186.00 443.67,186.00 C445.67,186.00 446.03,186.44 445.79,188.61 C445.42,191.96 448.12,193.98 450.42,192.07 C451.29,191.35 452.00,189.95 452.00,188.96 C452.00,187.97 452.56,186.97 453.25,186.73 C455.44,185.97 457.00,187.14 457.00,189.54 C457.00,191.03 457.76,192.11 459.12,192.54 C461.85,193.41 484.42,193.48 485.80,192.62 C486.39,192.26 487.14,192.41 487.47,192.96 C487.84,193.56 492.16,193.75 498.54,193.44 C508.74,192.94 510.58,193.44 507.61,195.91 C506.56,196.78 505.60,196.77 503.68,195.90 C500.07,194.25 497.66,195.42 498.25,198.51 C498.65,200.60 498.34,201.00 496.32,201.00 C494.30,201.00 493.97,200.57 494.21,198.25 C494.46,195.91 494.13,195.50 492.00,195.50 C490.09,195.50 489.42,196.09 489.15,198.00 C488.72,201.06 487.02,202.26 485.24,200.78 C484.20,199.92 484.17,199.51 485.14,198.91 C486.11,198.32 486.09,197.82 485.06,196.58 C482.60,193.61 478.00,195.32 478.00,199.20 C478.00,200.19 477.55,201.00 477.00,201.00 C476.45,201.00 476.00,199.86 476.00,198.47 C476.00,195.43 473.74,194.34 470.51,195.81 C468.80,196.59 467.30,196.56 465.00,195.69 C462.23,194.65 461.67,194.74 460.44,196.42 C459.40,197.84 459.32,198.68 460.14,199.67 C461.01,200.71 460.73,201.00 458.83,201.00 C456.86,201.00 456.43,200.50 456.46,198.25 C456.49,196.21 455.96,195.42 454.41,195.20 C451.81,194.83 449.00,197.76 450.86,198.91 ZM 600.00 158.50 L 600.00 208.04 C600.00,198.23 599.80,196.96 598.07,196.04 C594.87,194.33 592.48,195.93 592.88,199.54 C592.94,200.11 592.09,200.64 590.99,200.73 C589.35,200.85 589.10,200.44 589.60,198.45 C590.04,196.69 589.73,195.84 588.47,195.35 C585.83,194.34 583.46,196.38 583.79,199.39 C584.01,201.38 583.63,202.00 582.20,202.00 C579.60,202.00 578.91,201.04 580.01,198.97 C581.16,196.84 579.01,194.65 576.30,195.19 C575.05,195.43 574.50,196.45 574.50,198.50 C574.50,201.58 572.48,202.78 569.33,201.57 C568.04,201.08 567.99,200.71 569.08,199.41 C570.13,198.14 570.14,197.45 569.12,195.82 C568.43,194.71 568.11,193.56 568.41,193.25 C569.28,192.39 583.45,192.54 584.89,193.43 C586.91,194.68 591.13,191.99 590.46,189.89 C589.78,187.72 592.64,186.00 596.93,186.00 C599.93,186.00 600.00,185.89 600.00,181.22 C600.00,176.78 599.78,176.35 596.85,175.25 C594.18,174.24 593.90,173.83 594.97,172.53 C595.97,171.33 595.98,170.69 595.04,169.54 C593.42,167.60 594.56,166.00 597.56,166.00 C599.93,166.00 600.00,165.78 600.00,158.50 ZM 70.32 160.41 C70.42,161.44 69.94,162.48 69.25,162.73 C68.56,162.97 67.97,163.02 67.92,162.83 C67.58,161.34 66.99,159.14 66.43,157.25 C66.02,155.86 66.19,155.00 66.88,155.00 C68.70,155.00 68.16,152.18 66.25,151.68 C65.29,151.44 61.95,151.22 58.83,151.20 C52.97,151.16 50.74,152.78 52.96,155.45 C53.63,156.25 53.57,157.03 52.78,157.82 C51.14,159.46 49.49,159.29 47.87,157.34 C46.80,156.04 46.78,155.58 47.75,155.25 C48.44,155.02 49.00,154.02 49.00,153.02 C49.00,151.12 47.12,150.00 43.92,150.00 C41.61,150.00 41.51,149.35 43.50,147.36 C44.83,146.02 45.17,146.02 46.50,147.36 C47.55,148.40 48.84,148.63 50.75,148.12 C52.26,147.71 56.65,147.56 60.50,147.78 C64.35,148.01 69.41,148.17 71.75,148.14 C74.09,148.12 76.00,148.52 76.00,149.05 C76.00,149.57 75.13,150.00 74.07,150.00 C73.01,150.00 71.41,150.73 70.52,151.62 C69.03,153.11 69.04,153.39 70.66,155.18 C71.90,156.54 72.08,157.33 71.28,157.83 C70.66,158.21 70.22,159.37 70.32,160.41 ZM 402.11 197.59 C400.96,198.92 399.47,200.00 398.81,200.00 C397.88,200.00 397.87,199.73 398.78,198.82 C399.64,197.96 399.66,197.29 398.85,196.32 C397.53,194.73 394.80,194.60 393.33,196.07 C392.56,196.84 391.09,196.83 388.20,196.05 C384.18,194.97 384.16,194.94 384.33,190.38 L 384.50 185.80 L 388.31 186.31 C390.41,186.60 393.38,186.46 394.93,186.02 C398.37,185.03 401.34,186.46 399.00,187.97 C397.04,189.24 398.78,192.24 401.90,192.98 C404.70,193.64 404.74,194.57 402.11,197.59 ZM 236.46 210.94 C236.82,211.52 238.17,212.00 239.45,212.00 C241.84,212.00 243.00,210.33 243.00,206.92 C243.00,205.86 243.64,205.00 244.42,205.00 C246.30,205.00 246.95,202.93 245.78,200.66 C245.12,199.38 244.15,199.00 242.57,199.39 C240.83,199.83 240.04,199.39 239.17,197.48 C237.30,193.36 233.65,194.26 230.97,199.50 C228.55,204.22 229.44,206.19 233.63,205.41 C236.96,204.78 237.07,204.86 236.46,207.32 C236.10,208.73 236.11,210.36 236.46,210.94 ZM 555.68 198.17 C555.99,202.87 551.51,202.71 550.85,198.00 C550.58,196.09 549.91,195.50 548.00,195.50 C545.89,195.50 545.53,195.93 545.69,198.25 C545.85,200.56 545.48,201.00 543.42,201.00 C541.30,201.00 541.05,200.66 541.59,198.51 C542.09,196.51 541.75,195.84 539.91,195.16 L 537.61 194.31 L 540.06 193.83 C542.08,193.43 560.24,193.47 564.81,193.88 C565.61,193.95 565.81,194.48 565.31,195.25 C564.86,195.94 564.50,197.62 564.50,199.00 C564.50,200.83 563.97,201.50 562.50,201.50 C561.40,201.50 560.44,200.82 560.37,200.00 C560.29,199.18 560.18,197.68 560.12,196.68 C560.03,195.39 559.35,194.95 557.75,195.18 C556.00,195.43 555.54,196.10 555.68,198.17 ZM 403.49 215.01 C402.70,216.29 400.29,216.29 399.50,215.00 C399.16,214.45 398.06,214.00 397.06,214.00 C394.53,214.00 392.98,211.81 393.66,209.20 C394.40,206.35 397.25,206.37 398.51,209.24 C399.72,212.00 401.87,212.45 404.45,210.48 C405.96,209.33 406.12,208.72 405.20,207.80 C404.54,207.14 404.00,206.35 404.00,206.05 C404.00,205.21 419.73,205.40 420.58,206.25 C421.00,206.66 419.25,207.00 416.71,207.00 C412.02,207.00 407.00,208.63 407.00,210.16 C407.00,210.62 407.34,210.89 407.75,210.76 C408.16,210.62 409.61,211.30 410.96,212.25 C413.01,213.69 413.19,214.19 412.06,215.24 C411.32,215.93 410.98,216.01 411.31,215.41 C412.09,214.02 404.35,213.62 403.49,215.01 ZM 193.37 182.01 C192.34,182.02 187.45,182.15 182.50,182.29 C177.55,182.44 172.68,182.39 171.67,182.19 C169.99,181.85 169.98,181.68 171.45,180.06 C172.88,178.47 172.89,178.15 171.53,177.02 C169.18,175.07 169.70,174.00 173.00,174.00 C176.00,176.32 175.55,177.00 175.00,177.00 C172.84,177.00 174.15,180.00 176.57,180.61 C180.03,181.48 181.88,179.64 180.23,176.99 C179.16,175.28 179.31,174.96 181.45,174.42 C184.74,173.60 186.13,174.65 185.42,177.45 C184.71,180.28 186.25,181.41 189.65,180.55 C191.53,180.08 192.01,179.48 191.52,178.21 C190.34,175.19 190.46,174.59 192.25,174.55 C194.25,174.49 194.39,174.82 193.45,177.26 C193.08,178.23 193.33,179.69 194.01,180.51 C195.03,181.74 194.92,182.00 193.37,182.01 ZM 432.46 201.38 C430.32,202.20 429.78,202.15 428.00,200.98 C426.73,200.15 426.71,199.86 427.90,199.10 C430.02,197.73 428.42,195.03 425.07,194.36 C422.37,193.82 422.15,193.48 422.63,190.63 C423.51,185.53 423.78,185.13 425.94,185.69 C428.31,186.32 428.51,187.08 426.75,188.87 C425.75,189.88 425.89,190.42 427.44,191.57 C428.51,192.36 429.92,193.00 430.57,193.00 C432.39,193.00 434.05,190.50 433.76,188.20 C433.62,187.06 433.95,186.21 434.50,186.31 C435.05,186.42 435.38,187.45 435.23,188.61 C435.09,189.78 435.65,191.29 436.48,191.99 C438.44,193.61 438.42,195.00 436.43,195.00 C435.57,195.00 433.96,195.49 432.85,196.08 C430.98,197.08 430.95,197.29 432.46,198.96 C433.96,200.61 433.96,200.80 432.46,201.38 ZM 23.76 182.08 C23.62,182.12 20.24,182.36 16.25,182.60 C10.48,182.95 9.00,182.76 9.00,181.64 C9.00,179.78 12.83,178.84 15.20,180.11 C17.20,181.18 21.00,180.45 21.00,178.99 C21.00,177.77 16.85,174.98 15.91,175.56 C15.48,175.82 14.85,175.57 14.51,175.01 C14.16,174.45 14.58,173.72 15.44,173.39 C17.52,172.59 17.42,170.34 15.25,169.11 C13.97,168.39 13.80,167.82 14.60,167.01 C15.42,166.19 16.63,166.33 19.19,167.56 C21.97,168.88 22.59,169.68 22.25,171.49 C22.01,172.74 22.33,174.08 22.95,174.47 C23.80,174.99 23.78,175.57 22.86,176.67 C21.89,177.84 21.88,178.58 22.82,180.08 C23.48,181.14 23.90,182.04 23.76,182.08 ZM 61.57 181.89 C60.79,183.15 60.30,183.17 57.57,182.10 C56.24,181.58 56.00,181.12 56.82,180.61 C59.96,178.67 56.33,175.17 52.64,176.58 C50.31,177.48 50.61,179.51 53.25,180.78 C55.23,181.74 54.96,181.87 51.00,181.90 C46.85,181.93 46.65,181.82 48.42,180.48 C50.23,179.12 50.24,178.92 48.64,177.16 C47.10,175.45 47.09,175.17 48.54,173.96 C49.42,173.24 49.92,171.82 49.66,170.82 C49.37,169.70 49.73,169.00 50.59,169.00 C51.37,169.00 52.00,169.84 52.00,170.88 C52.00,171.91 52.65,173.29 53.44,173.95 C55.31,175.50 59.18,173.58 58.78,171.30 C58.63,170.42 59.06,169.51 59.75,169.27 C60.53,169.00 61.00,169.77 61.00,171.33 C61.00,172.71 61.56,174.03 62.25,174.27 C63.14,174.58 62.94,175.34 61.54,176.91 C59.97,178.68 59.85,179.29 60.92,179.95 C61.65,180.40 61.95,181.28 61.57,181.89 ZM 121.14 156.01 C120.24,156.02 118.60,156.19 117.50,156.38 C116.40,156.58 114.24,156.54 112.71,156.30 C110.45,155.94 110.03,155.48 110.54,153.88 C110.88,152.79 110.61,151.23 109.93,150.41 C109.03,149.33 108.99,148.61 109.78,147.82 C111.46,146.14 114.31,147.69 113.72,149.98 C113.15,152.14 115.33,154.53 116.96,153.53 C117.53,153.17 118.00,151.81 118.00,150.51 C118.00,148.98 118.74,147.90 120.10,147.47 C122.98,146.55 123.82,147.83 123.26,152.25 C122.93,154.86 122.28,156.00 121.14,156.01 ZM 122.85 174.68 C121.56,176.23 121.00,176.29 119.02,175.04 C118.21,174.52 115.51,174.37 113.02,174.70 L 108.50 175.30 L 110.49 173.06 C112.45,170.85 112.45,170.80 110.54,169.41 C108.13,167.64 109.80,165.48 112.83,166.45 C114.26,166.90 114.81,167.86 114.68,169.69 C114.48,172.58 115.73,173.46 118.00,172.01 C119.22,171.24 119.27,170.70 118.28,169.09 C117.24,167.42 117.34,167.03 118.89,166.54 C120.84,165.91 124.00,166.76 124.00,167.91 C124.00,168.29 123.46,169.14 122.80,169.80 C121.88,170.72 121.87,171.27 122.78,172.18 C123.64,173.04 123.66,173.71 122.85,174.68 ZM 31.58 161.36 C31.87,162.11 30.13,162.58 26.51,162.73 C22.22,162.90 21.00,162.63 21.00,161.48 C21.00,160.66 21.45,160.00 22.00,160.00 C22.55,160.00 23.00,159.21 23.00,158.24 C23.00,155.92 26.24,153.91 28.09,155.08 C28.87,155.57 30.54,155.98 31.81,155.98 C33.95,156.00 34.01,156.15 32.63,158.11 C31.82,159.28 31.34,160.74 31.58,161.36 ZM 165.42 220.39 C163.34,221.19 162.78,221.15 161.05,220.05 C160.25,219.55 159.12,219.40 158.55,219.74 C157.97,220.07 158.23,219.48 159.12,218.42 C160.01,217.36 160.55,215.97 160.31,215.32 C160.07,214.67 160.81,213.64 161.94,213.03 C163.66,212.11 164.00,212.22 164.02,213.71 C164.02,214.81 164.32,215.07 164.77,214.40 C165.63,213.12 174.72,211.71 175.33,212.78 C175.56,213.17 174.96,214.31 173.99,215.30 C172.41,216.92 172.09,216.95 170.69,215.55 C169.04,213.90 165.49,213.37 166.45,214.91 C166.76,215.42 166.45,216.06 165.76,216.34 C164.76,216.74 164.76,216.86 165.75,216.92 C167.55,217.03 167.29,219.67 165.42,220.39 ZM 401.00 243.00 C401.87,243.54 401.90,243.94 401.11,244.43 C400.50,244.81 400.00,244.61 400.00,244.00 C400.00,243.37 399.45,243.21 398.75,243.63 C397.92,244.13 397.97,243.81 398.89,242.67 C400.09,241.19 400.04,240.41 398.53,237.06 C396.49,232.53 397.07,231.00 400.83,231.00 C403.35,231.00 403.55,231.30 403.57,235.25 C403.58,238.29 403.05,239.89 401.69,240.88 C400.32,241.88 400.13,242.46 401.00,243.00 ZM 84.52 135.03 C84.85,135.56 84.42,136.00 83.56,136.00 C82.70,136.00 82.00,135.19 82.00,134.20 C82.00,133.21 81.61,131.97 81.13,131.45 C80.65,130.93 80.48,128.81 80.74,126.75 C81.10,123.91 81.68,123.00 83.11,123.00 C84.45,123.00 85.00,123.71 85.00,125.44 C85.00,126.78 85.47,128.18 86.05,128.53 C86.75,128.97 86.57,130.01 85.51,131.62 C84.64,132.96 84.19,134.49 84.52,135.03 ZM 367.30 188.13 C365.76,188.29 364.05,188.72 363.50,189.09 C362.95,189.45 361.72,188.98 360.76,188.05 C359.11,186.44 359.18,186.37 362.02,186.79 C363.67,187.03 365.58,186.84 366.26,186.36 C366.94,185.88 370.20,185.71 373.50,185.99 L 379.50 186.50 L 376.18 188.31 C373.64,189.70 372.53,189.86 371.48,188.98 C370.72,188.36 368.84,187.97 367.30,188.13 ZM 527.00 200.49 C527.00,201.09 526.06,201.65 524.91,201.73 C523.14,201.87 522.91,201.49 523.45,199.35 C523.81,197.93 523.57,196.19 522.92,195.40 L 522.90 195.38 C522.49,194.89 522.21,194.55 522.28,194.31 C522.43,193.76 524.39,193.73 530.75,193.61 C534.19,193.55 537.00,193.73 537.00,194.01 C537.00,194.29 536.10,195.08 535.00,195.77 C533.81,196.51 533.00,196.61 533.00,196.01 C533.00,194.74 528.00,194.71 526.01,195.97 C524.82,196.72 524.77,197.17 525.76,198.16 C526.44,198.84 527.00,199.89 527.00,200.49 ZM 133.32 174.35 C132.96,174.71 131.37,175.00 129.79,175.00 C127.01,175.00 126.93,174.87 127.60,171.25 C128.49,166.41 130.09,165.14 133.00,166.98 C134.28,167.79 134.21,168.14 132.50,169.46 C130.62,170.91 130.60,171.08 132.23,172.35 C133.19,173.09 133.68,173.99 133.32,174.35 ZM 84.86 156.00 C84.65,156.00 83.06,156.41 81.32,156.91 C79.58,157.41 77.89,157.56 77.58,157.24 C76.68,156.35 76.90,154.82 77.84,155.40 C79.60,156.49 82.75,153.12 82.27,150.65 C81.68,147.54 83.71,146.28 85.85,148.44 C87.38,150.00 87.38,150.18 85.84,151.05 C84.82,151.64 84.38,152.76 84.71,154.00 C85.00,155.10 85.07,156.00 84.86,156.00 ZM 105.56 170.85 C105.29,173.94 104.84,174.55 102.63,174.82 C100.21,175.11 100.07,174.91 100.64,172.07 C101.08,169.87 100.87,169.00 99.91,169.00 C98.85,169.00 98.88,168.69 100.04,167.53 C100.90,166.67 102.42,166.30 103.70,166.63 C105.53,167.11 105.83,167.80 105.56,170.85 ZM 559.55 170.75 C559.37,175.16 559.15,175.52 556.54,175.83 C554.14,176.11 553.84,175.89 554.53,174.33 C554.97,173.32 555.35,171.38 555.38,170.00 C555.43,167.46 556.59,166.04 558.62,166.02 C559.32,166.01 559.67,167.78 559.55,170.75 ZM 440.41 215.70 C439.71,218.67 437.00,222.31 437.00,220.27 C437.00,219.64 437.45,218.84 438.00,218.50 C439.52,217.56 439.21,216.61 436.94,215.19 C434.49,213.66 431.00,214.51 431.00,216.64 C431.00,217.54 430.29,218.01 429.25,217.81 C428.28,217.62 427.50,216.58 427.50,215.49 C427.50,213.73 428.28,213.47 434.28,213.20 L 441.06 212.91 ZM 117.50 190.00 C117.84,190.55 117.69,191.00 117.17,191.00 C116.64,191.00 115.95,190.32 115.64,189.50 C115.32,188.68 114.04,187.99 112.78,187.97 C109.20,187.92 112.66,186.36 118.00,185.63 C123.10,184.92 126.58,186.29 124.00,187.98 C123.18,188.53 121.24,188.98 119.69,188.98 C118.08,188.99 117.14,189.43 117.50,190.00 ZM 593.25 192.50 C593.94,193.29 595.74,193.94 597.25,193.96 C599.65,194.00 600.00,193.62 600.00,191.00 C600.00,188.49 599.60,188.00 597.56,188.00 C596.22,188.00 594.84,188.46 594.49,189.02 C594.14,189.58 593.44,189.77 592.93,189.46 C591.56,188.61 591.80,190.85 593.25,192.50 ZM 94.10 131.25 C94.05,131.66 93.14,132.00 92.09,132.00 C90.49,132.00 90.19,131.29 90.25,127.55 C90.29,124.65 90.82,122.90 91.75,122.54 C94.63,121.44 95.16,123.42 94.10,131.25 ZM 95.36 154.78 C95.86,155.58 95.44,156.00 94.13,156.00 C92.90,156.00 91.54,154.79 90.55,152.81 C89.16,150.02 89.15,149.43 90.40,148.17 C92.58,145.99 95.07,147.45 94.82,150.75 C94.70,152.30 94.95,154.11 95.36,154.78 ZM 393.55 236.53 C392.16,239.87 388.91,241.29 387.58,239.13 C387.29,238.66 385.91,238.49 384.52,238.75 C382.92,239.06 382.00,238.78 382.00,237.99 C382.00,237.13 383.06,236.91 385.40,237.29 C387.92,237.70 389.33,237.34 390.90,235.88 C393.08,233.85 393.74,232.42 392.00,233.50 C391.45,233.84 391.00,233.64 391.00,233.06 C391.00,232.48 391.90,232.00 393.00,232.00 C395.39,232.00 395.40,232.11 393.55,236.53 ZM 43.82 180.66 C45.28,181.77 45.00,181.94 41.74,181.97 C38.28,182.00 38.08,181.85 39.18,180.08 C40.13,178.56 40.09,177.82 39.00,176.50 C37.84,175.10 37.84,174.72 39.01,173.99 C40.40,173.13 44.01,174.43 43.98,175.79 C43.98,176.18 43.56,177.15 43.06,177.94 C42.43,178.93 42.67,179.79 43.82,180.66 ZM 132.98 193.14 C133.01,194.27 130.37,194.84 129.01,194.01 C128.29,193.56 127.66,191.67 127.60,189.81 C127.51,186.78 127.77,186.43 130.00,186.58 C133.37,186.80 133.40,186.82 132.18,188.28 C131.50,189.10 131.45,190.10 132.04,191.03 C132.55,191.84 132.98,192.79 132.98,193.14 ZM 600.00 138.50 L 600.00 151.00 L 597.11 151.00 C593.39,151.00 592.69,149.09 595.26,145.97 C596.59,144.35 597.44,143.93 597.73,144.75 C598.93,148.16 600.00,145.21 600.00,138.50 ZM 141.75 154.14 C142.10,155.51 141.69,156.00 140.18,156.00 C137.83,156.00 136.46,154.45 137.99,153.51 C138.66,153.09 138.67,152.26 138.02,151.04 C137.31,149.71 137.44,148.88 138.52,147.98 C140.53,146.31 143.38,148.51 142.12,150.75 C141.65,151.60 141.48,153.12 141.75,154.14 ZM 76.00 130.17 C76.00,131.19 72.87,131.24 71.50,130.23 C70.95,129.83 70.43,128.01 70.35,126.19 C70.21,123.34 70.49,122.93 72.35,123.19 C73.79,123.40 74.50,124.21 74.50,125.66 C74.50,126.85 74.84,128.16 75.25,128.58 C75.66,128.99 76.00,129.71 76.00,130.17 ZM 93.84 174.70 C92.62,176.16 89.00,176.48 89.00,175.12 C89.00,174.64 89.70,173.66 90.56,172.95 C91.56,172.12 91.92,170.80 91.55,169.32 C91.08,167.48 91.37,167.00 92.92,167.00 C94.00,167.00 95.16,167.45 95.50,168.00 C95.84,168.55 95.59,169.00 94.94,169.00 C94.22,169.00 93.99,169.85 94.34,171.20 C94.66,172.41 94.43,173.98 93.84,174.70 ZM 38.24 148.05 C38.60,149.61 34.50,151.10 33.27,149.87 C32.10,148.70 34.85,142.00 36.49,142.00 C37.08,142.00 37.66,143.10 37.77,144.46 C37.88,145.81 38.09,147.42 38.24,148.05 ZM 588.73 171.00 C588.73,174.41 588.41,175.00 586.61,175.00 C584.82,174.99 584.49,174.38 584.45,171.00 C584.41,167.55 584.70,167.00 586.56,167.00 C588.42,167.00 588.73,167.57 588.73,171.00 ZM 22.75 198.39 C22.75,200.23 22.22,201.00 20.97,201.00 C19.64,201.00 19.33,200.46 19.75,198.85 C20.12,197.44 19.69,196.24 18.50,195.38 C16.85,194.17 16.84,194.00 18.35,193.42 C20.70,192.52 25.80,193.89 24.07,194.95 C23.35,195.40 22.75,196.95 22.75,198.39 ZM 541.52 173.20 C541.85,174.06 541.29,174.63 540.02,174.72 C537.87,174.89 537.66,174.57 537.97,171.61 C538.08,170.57 537.57,169.34 536.84,168.86 C535.73,168.15 535.74,167.84 536.91,167.09 C539.02,165.73 541.00,166.91 541.00,169.53 C541.00,170.80 541.24,172.45 541.52,173.20 ZM 142.28 189.75 C141.91,192.15 141.26,193.00 139.80,193.00 C138.65,193.00 138.02,192.48 138.28,191.75 C138.53,191.06 138.32,189.71 137.82,188.73 C137.11,187.36 137.42,186.77 139.21,186.09 C142.20,184.94 142.90,185.78 142.28,189.75 ZM 203.53 199.11 C203.97,200.49 203.65,201.00 202.32,200.99 C200.89,200.99 200.47,200.13 200.35,196.99 C200.22,193.48 200.47,193.00 202.43,193.00 C205.49,193.00 206.19,193.95 204.42,195.72 C203.58,196.57 203.19,198.03 203.53,199.11 ZM 588.22 149.84 C587.77,151.20 584.37,151.40 583.58,150.12 C582.92,149.07 585.80,143.00 586.96,143.00 C587.88,143.00 588.81,148.07 588.22,149.84 ZM 171.66 154.54 C173.41,155.87 173.40,155.94 171.31,155.97 C168.79,156.00 167.75,154.80 168.54,152.75 C168.84,151.96 168.42,150.76 167.59,150.07 C166.41,149.09 166.33,148.44 167.25,146.98 C168.36,145.19 168.44,145.19 169.76,147.07 C170.53,148.17 170.84,149.92 170.47,151.08 C170.03,152.48 170.41,153.60 171.66,154.54 ZM 531.34 172.46 C531.99,174.13 531.09,174.94 529.31,174.30 C528.65,174.06 528.36,173.22 528.67,172.42 C528.97,171.63 528.65,170.29 527.95,169.44 C526.06,167.16 528.13,165.46 530.96,166.98 C532.69,167.90 532.89,168.43 531.95,169.56 C531.31,170.34 531.03,171.64 531.34,172.46 ZM 445.56 171.21 C445.51,174.87 445.17,175.55 443.25,175.82 C440.90,176.15 440.03,173.72 442.05,172.47 C442.62,172.11 442.96,170.86 442.80,169.69 C442.62,168.38 443.11,167.43 444.06,167.24 C445.29,166.99 445.61,167.84 445.56,171.21 ZM 454.85 172.75 C454.93,174.13 454.40,175.00 453.49,175.00 C453.36,175.00 453.25,175.00 453.14,175.00 C452.68,175.01 452.38,175.01 452.19,174.87 C451.78,174.59 451.79,173.70 451.66,171.00 C451.52,168.01 451.85,167.45 453.89,167.16 C455.88,166.88 456.15,167.14 455.51,168.66 C455.08,169.67 454.79,171.51 454.85,172.75 ZM 71.00 177.50 C69.40,179.43 67.91,179.29 65.82,176.99 C64.23,175.24 64.30,175.09 67.01,174.15 C70.59,172.90 73.08,174.99 71.00,177.50 ZM 468.25 217.19 C465.13,219.87 463.31,220.56 465.28,218.32 C466.88,216.48 466.90,216.16 465.48,214.98 C464.22,213.94 464.17,213.51 465.20,212.85 C469.25,210.29 471.90,214.06 468.25,217.19 ZM 430.98 236.97 C432.07,239.03 429.86,241.14 428.33,239.51 C427.56,238.68 427.54,237.78 428.28,236.47 C429.03,235.13 428.99,234.50 428.15,234.22 C426.40,233.63 427.84,232.00 430.11,232.00 C431.70,232.00 431.91,232.35 431.13,233.72 C430.60,234.67 430.53,236.13 430.98,236.97 ZM 151.80 209.43 C151.80,212.53 151.48,213.00 149.40,213.00 C146.92,213.00 146.19,211.62 148.07,210.46 C148.66,210.09 148.89,209.17 148.60,208.40 C148.30,207.63 148.24,207.00 148.45,207.00 C148.66,207.00 149.50,206.74 150.32,206.43 C151.46,205.99 151.80,206.69 151.80,209.43 ZM 13.62 198.60 C14.13,200.64 13.87,200.98 11.86,200.88 C10.16,200.80 9.99,200.64 11.25,200.31 C13.51,199.72 13.46,198.46 11.08,196.08 C8.90,193.90 9.34,193.00 12.61,193.00 C15.38,193.00 16.72,194.79 14.57,195.61 C13.50,196.02 13.20,196.95 13.62,198.60 ZM 568.44 172.61 C568.77,173.92 568.92,174.97 568.77,174.93 C564.78,173.89 563.97,167.72 567.75,167.18 C570.07,166.85 570.83,168.37 568.92,169.55 C568.32,169.92 568.11,171.29 568.44,172.61 ZM 205.62 175.23 C203.26,177.15 201.00,177.53 201.00,176.00 C201.00,175.45 201.71,175.00 202.59,175.00 C203.46,175.00 204.68,173.65 205.31,172.00 C205.93,170.35 206.97,169.00 207.63,169.00 C209.43,169.00 208.06,173.23 205.62,175.23 ZM 57.36 128.49 C58.08,130.36 60.38,130.45 61.87,128.65 C62.72,127.63 62.55,126.90 61.14,125.63 C59.49,124.14 59.15,124.12 58.03,125.46 C57.34,126.29 57.04,127.66 57.36,128.49 ZM 322.50 191.00 C323.20,192.14 325.09,192.28 327.44,191.38 C328.69,190.91 328.79,190.45 327.90,189.38 C325.77,186.82 320.83,188.30 322.50,191.00 ZM 165.46 179.58 C166.95,181.85 166.93,182.00 165.14,182.00 C163.75,182.00 163.09,181.11 162.74,178.75 C162.23,175.32 163.36,173.82 165.77,174.74 C166.98,175.21 166.94,175.45 165.55,176.23 C164.02,177.09 164.01,177.37 165.46,179.58 ZM 418.22 193.45 C417.91,193.75 416.79,194.00 415.72,194.00 C414.18,194.00 413.90,193.52 414.37,191.75 C414.70,190.51 414.98,189.16 414.99,188.75 C414.99,188.34 415.34,188.00 415.75,188.01 C416.76,188.02 418.91,192.76 418.22,193.45 ZM 29.00 148.91 C29.00,149.38 28.38,150.27 27.63,150.89 C25.90,152.33 23.48,149.79 24.37,147.47 C24.84,146.24 25.40,146.14 26.99,146.99 C28.09,147.59 29.00,148.45 29.00,148.91 ZM 516.87 195.66 C515.50,197.30 514.97,197.30 512.77,195.62 C510.73,194.08 511.45,193.00 514.50,193.00 C517.35,193.00 518.24,194.00 516.87,195.66 ZM 8.15 166.75 C8.79,167.39 8.79,168.91 8.15,171.11 C7.62,172.98 7.11,174.27 7.01,174.00 C6.92,173.73 6.70,172.82 6.52,172.00 C6.34,171.18 5.89,169.76 5.53,168.85 C4.75,166.92 6.73,165.33 8.15,166.75 ZM 378.00 193.78 L 381.50 194.64 L 378.50 195.08 C374.21,195.70 370.82,195.04 371.30,193.67 C371.74,192.42 372.52,192.43 378.00,193.78 ZM 578.01 172.75 C578.01,173.44 577.55,174.00 577.00,174.00 C576.45,174.00 576.00,173.14 576.00,172.08 C576.00,171.03 575.76,169.55 575.48,168.80 C575.13,167.91 575.68,167.43 577.04,167.43 C578.65,167.43 579.00,167.89 578.57,169.46 C578.27,170.58 578.02,172.06 578.01,172.75 ZM 147.80 175.79 C147.40,177.85 145.86,178.21 143.88,176.70 C142.55,175.69 142.50,175.26 143.58,174.25 C145.25,172.69 148.19,173.76 147.80,175.79 ZM 60.87 157.66 C59.57,159.22 59.00,159.29 57.12,158.10 C55.39,157.00 56.53,155.00 58.89,155.00 C61.38,155.00 62.18,156.08 60.87,157.66 ZM 151.67 148.58 C152.00,149.45 151.61,150.74 150.79,151.45 C149.98,152.17 149.46,152.51 149.64,152.22 C149.82,151.93 149.19,151.10 148.23,150.37 C146.72,149.20 146.69,148.91 148.00,148.03 C150.10,146.63 150.97,146.76 151.67,148.58 ZM 35.00 193.76 C35.00,195.44 31.37,196.79 29.56,195.78 C28.10,194.96 28.02,194.60 29.13,193.90 C30.82,192.83 35.00,192.73 35.00,193.76 ZM 42.89 193.91 C44.01,194.62 43.91,194.98 42.37,195.80 C40.55,196.78 37.00,195.35 37.00,193.64 C37.00,192.70 41.28,192.89 42.89,193.91 ZM 225.50 199.00 C226.25,200.22 227.07,200.24 228.88,199.10 C230.47,198.09 229.54,196.00 227.50,196.00 C225.78,196.00 224.67,197.66 225.50,199.00 ZM 559.83 149.71 C558.42,151.41 557.07,151.35 556.38,149.55 C555.45,147.14 556.86,145.89 559.00,147.23 C560.41,148.11 560.62,148.75 559.83,149.71 ZM 161.75 149.25 C161.19,150.92 158.36,151.40 157.48,149.97 C157.09,149.34 157.24,148.36 157.82,147.78 C159.16,146.44 162.30,147.61 161.75,149.25 ZM 450.24 215.50 C449.98,216.88 449.34,218.00 448.82,218.00 C448.31,218.00 448.16,217.55 448.50,217.00 C448.84,216.45 448.69,216.00 448.17,216.00 C447.64,216.00 446.95,215.32 446.64,214.50 C446.23,213.43 446.73,213.00 448.39,213.00 C450.34,213.00 450.64,213.41 450.24,215.50 ZM 460.35 214.53 C459.76,216.06 459.33,216.18 457.25,215.34 C455.52,214.64 455.69,213.33 457.59,212.60 C459.71,211.79 461.04,212.72 460.35,214.53 ZM 460.47 220.05 C460.19,220.50 459.07,220.81 457.98,220.72 C455.88,220.57 455.30,218.55 457.04,217.47 C458.30,216.70 461.19,218.88 460.47,220.05 ZM 402.65 219.46 C402.00,221.17 399.45,221.53 398.53,220.05 C397.89,219.02 401.83,216.50 402.71,217.38 C403.01,217.67 402.98,218.61 402.65,219.46 ZM 535.71 181.63 C534.51,182.82 527.00,183.23 527.00,182.09 C527.00,181.46 528.96,181.00 531.67,181.00 C534.23,181.00 536.05,181.28 535.71,181.63 ZM 213.82 213.47 C214.37,215.03 210.59,215.85 209.29,214.47 C208.35,213.46 208.38,213.07 209.44,212.66 C211.28,211.95 213.43,212.35 213.82,213.47 ZM 204.13 180.38 C206.43,181.99 206.42,182.00 202.51,182.00 C198.88,182.00 198.70,181.87 200.19,180.38 C201.69,178.88 201.99,178.88 204.13,180.38 ZM 389.64 190.50 C389.30,191.39 389.63,192.00 390.45,192.00 C392.81,192.00 395.02,190.84 394.44,189.90 C393.54,188.45 390.27,188.87 389.64,190.50 ZM 33.00 175.98 C30.77,177.45 29.00,177.21 29.00,175.44 C29.00,174.58 29.41,174.14 29.91,174.45 C30.42,174.76 30.98,174.57 31.16,174.04 C31.38,173.41 32.03,173.41 33.00,174.03 C34.33,174.89 34.33,175.11 33.00,175.98 ZM 577.42 150.39 L 577.38 150.41 C576.21,150.86 575.76,151.03 575.40,150.91 C575.17,150.84 574.98,150.65 574.67,150.33 C573.31,148.97 574.07,148.00 576.50,148.00 C579.29,148.00 579.85,149.46 577.42,150.39 ZM 17.99 147.97 C18.95,148.58 19.13,149.23 18.49,149.79 C17.16,150.95 13.79,150.12 14.26,148.73 C14.78,147.17 16.25,146.87 17.99,147.97 ZM 124.00 193.50 C123.32,194.32 122.14,195.00 121.38,195.00 C120.62,195.00 120.00,194.32 120.00,193.50 C120.00,192.55 120.96,192.00 122.62,192.00 C124.84,192.00 125.05,192.23 124.00,193.50 ZM 388.50 211.93 C388.50,213.51 386.74,214.40 385.69,213.35 C384.31,211.98 385.03,209.86 386.75,210.19 C387.71,210.38 388.50,211.16 388.50,211.93 ZM 132.73 149.31 C132.13,151.11 130.04,151.26 129.38,149.54 C129.03,148.65 128.97,147.70 129.23,147.43 C130.08,146.59 133.10,148.21 132.73,149.31 ZM 470.00 200.50 C470.00,201.33 469.11,202.00 468.00,202.00 C466.89,202.00 466.00,201.33 466.00,200.50 C466.00,199.67 466.89,199.00 468.00,199.00 C469.11,199.00 470.00,199.67 470.00,200.50 ZM 61.34 161.45 C61.78,162.60 61.28,163.00 59.39,163.00 C57.79,163.00 56.99,162.53 57.25,161.75 C57.87,159.88 60.66,159.68 61.34,161.45 ZM 414.50 182.00 C411.73,183.19 409.23,183.19 408.50,182.00 C408.12,181.39 409.56,181.03 412.19,181.07 C415.52,181.12 416.04,181.34 414.50,182.00 ZM 432.50 225.00 C432.86,225.58 431.84,226.00 430.06,226.00 C428.38,226.00 427.00,225.55 427.00,225.00 C427.00,224.45 428.10,224.00 429.44,224.00 C430.78,224.00 432.16,224.45 432.50,225.00 ZM 470.25 180.78 C472.23,181.73 471.95,181.86 468.00,181.86 C464.05,181.86 463.77,181.73 465.75,180.78 C467.37,180.00 468.63,180.00 470.25,180.78 ZM 162.00 205.89 C162.00,207.20 159.51,207.94 158.08,207.05 C157.15,206.47 157.26,206.12 158.50,205.64 C160.81,204.75 162.00,204.84 162.00,205.89 ZM 558.44 144.10 C557.63,145.42 556.41,145.20 555.00,143.50 C553.68,141.91 554.66,141.55 557.41,142.60 C558.28,142.94 558.74,143.61 558.44,144.10 ZM 550.50 168.99 C549.69,170.30 548.29,170.28 547.46,168.93 C546.54,167.44 547.61,166.63 549.52,167.37 C550.40,167.71 550.85,168.44 550.50,168.99 ZM 393.50 200.99 C392.69,202.30 391.29,202.28 390.46,200.93 C389.54,199.44 390.61,198.63 392.52,199.37 C393.40,199.71 393.85,200.44 393.50,200.99 ZM 537.95 200.67 C538.19,200.88 537.01,200.96 535.31,200.83 C533.27,200.67 532.39,200.15 532.71,199.31 C533.09,198.33 533.70,198.30 535.35,199.15 C536.53,199.77 537.70,200.45 537.95,200.67 ZM 222.00 171.50 C222.00,172.46 222.65,173.01 223.55,172.82 C225.72,172.37 225.86,170.60 223.75,170.19 C222.66,169.98 222.00,170.47 222.00,171.50 ZM 33.45 180.59 C35.34,181.97 35.33,182.00 33.25,182.00 C31.02,182.00 29.40,180.49 30.74,179.66 C31.17,179.39 32.39,179.81 33.45,180.59 ZM 516.59 199.38 C517.43,201.55 516.84,202.14 514.98,200.99 C513.84,200.28 513.78,199.82 514.73,198.87 C515.67,197.93 516.08,198.04 516.59,199.38 ZM 383.00 244.00 C383.00,244.55 381.76,244.99 380.25,244.98 C378.11,244.97 377.83,244.76 379.00,244.00 C380.96,242.74 383.00,242.74 383.00,244.00 ZM 165.22 198.82 C166.06,199.66 166.09,200.31 165.33,201.07 C164.58,201.82 164.07,201.64 163.61,200.42 C162.76,198.22 163.69,197.29 165.22,198.82 ZM 550.00 187.00 C550.00,187.55 549.10,188.00 548.00,188.00 C546.90,188.00 546.00,187.55 546.00,187.00 C546.00,186.45 546.90,186.00 548.00,186.00 C549.10,186.00 550.00,186.45 550.00,187.00 ZM 411.44 220.10 C410.79,221.15 409.60,221.26 408.69,220.36 C407.63,219.30 408.96,218.05 410.53,218.65 C411.33,218.96 411.74,219.61 411.44,220.10 ZM 582.50 182.00 C581.73,183.24 580.92,183.24 579.00,182.00 C577.84,181.25 578.13,181.03 580.31,181.02 C581.93,181.01 582.86,181.42 582.50,182.00 ZM 570.00 149.00 C570.00,149.55 569.35,150.00 568.56,150.00 C567.77,150.00 566.84,149.55 566.50,149.00 C566.16,148.45 566.81,148.00 567.94,148.00 C569.07,148.00 570.00,148.45 570.00,149.00 ZM 497.50 162.00 C499.27,162.76 499.19,162.87 496.75,162.93 C495.24,162.97 494.00,162.55 494.00,162.00 C494.00,160.83 494.77,160.83 497.50,162.00 ZM 28.57 142.23 C28.83,142.50 28.40,143.25 27.61,143.91 C26.63,144.72 25.97,144.77 25.53,144.04 C24.87,142.98 27.66,141.33 28.57,142.23 ZM 370.00 174.17 C370.00,174.62 369.58,175.00 369.06,175.00 C367.70,175.00 366.81,173.24 367.84,172.60 C368.81,172.00 370.00,172.86 370.00,174.17 ZM 22.81 213.06 C22.57,213.78 21.78,214.57 21.06,214.81 C20.31,215.06 19.94,214.69 20.19,213.94 C20.43,213.22 21.22,212.43 21.94,212.19 C22.69,211.94 23.06,212.31 22.81,213.06 ZM 175.00 198.00 C175.00,198.55 175.68,199.00 176.50,199.00 C177.32,199.00 178.00,198.55 178.00,198.00 C178.00,197.45 177.32,197.00 176.50,197.00 C175.68,197.00 175.00,197.45 175.00,198.00 ZM 568.10 143.70 C568.82,144.42 568.84,144.98 568.16,145.40 C567.60,145.75 566.84,145.55 566.47,144.95 C565.52,143.41 566.82,142.42 568.10,143.70 ZM 596.81 211.93 C597.01,212.52 596.42,213.00 595.50,213.00 C594.58,213.00 593.99,212.52 594.19,211.93 C594.39,211.33 594.98,210.85 595.50,210.85 C596.02,210.85 596.61,211.33 596.81,211.93 ZM 17.50 163.00 C17.16,163.55 16.46,164.00 15.94,164.00 C15.42,164.00 15.00,163.55 15.00,163.00 C15.00,162.45 15.70,162.00 16.56,162.00 C17.42,162.00 17.84,162.45 17.50,163.00 ZM 46.50 144.00 C46.16,144.55 45.46,145.00 44.94,145.00 C44.42,145.00 44.00,144.55 44.00,144.00 C44.00,143.45 44.70,143.00 45.56,143.00 C46.42,143.00 46.84,143.45 46.50,144.00 ZM 375.00 225.00 C375.00,225.55 374.58,226.00 374.06,226.00 C373.54,226.00 372.84,225.55 372.50,225.00 C372.16,224.45 372.58,224.00 373.44,224.00 C374.30,224.00 375.00,224.45 375.00,225.00 ZM 9.00 149.06 C9.00,149.58 8.55,150.00 8.00,150.00 C7.45,150.00 7.00,149.30 7.00,148.44 C7.00,147.58 7.45,147.16 8.00,147.50 C8.55,147.84 9.00,148.54 9.00,149.06 ZM 42.00 200.06 C42.00,200.58 41.55,201.00 41.00,201.00 C40.45,201.00 40.00,200.30 40.00,199.44 C40.00,198.58 40.45,198.16 41.00,198.50 C41.55,198.84 42.00,199.54 42.00,200.06 ZM 226.00 187.00 C226.00,187.55 225.55,188.00 225.00,188.00 C224.45,188.00 224.00,187.55 224.00,187.00 C224.00,186.45 224.45,186.00 225.00,186.00 C225.55,186.00 226.00,186.45 226.00,187.00 ZM 379.00 173.00 C379.00,173.55 378.55,174.00 378.00,174.00 C377.45,174.00 377.00,173.55 377.00,173.00 C377.00,172.45 377.45,172.00 378.00,172.00 C378.55,172.00 379.00,172.45 379.00,173.00 Z" fill="rgb(254,254,254)"/>
<path d="M 381.37 268.71 C378.97,267.34 374.00,261.68 374.00,260.32 C374.00,259.83 374.89,257.67 375.99,255.53 C377.88,251.82 377.89,251.53 376.24,249.71 C375.28,248.65 374.40,246.83 374.28,245.65 C374.16,244.47 373.94,242.38 373.78,241.00 C373.63,239.62 372.47,237.91 371.21,237.20 C369.27,236.09 369.03,235.37 369.59,232.38 L 370.25 228.86 L 366.62 229.54 C363.44,230.14 363.00,229.98 363.00,228.23 C363.00,227.10 363.84,226.01 364.92,225.73 C365.97,225.46 366.98,224.17 367.17,222.87 C367.40,221.21 368.31,220.36 370.23,220.01 C375.23,219.08 384.35,208.06 383.34,204.18 C383.06,203.11 383.31,201.92 383.91,201.55 C386.48,199.97 384.55,199.19 378.13,199.23 C370.44,199.28 368.66,198.64 369.47,196.08 C370.32,193.42 366.38,192.17 358.38,192.57 C354.53,192.76 350.66,193.19 349.79,193.53 C348.92,193.86 347.91,193.66 347.54,193.07 C346.64,191.60 342.47,191.72 341.23,193.25 C340.67,193.94 340.05,195.38 339.85,196.46 C339.42,198.77 334.51,200.10 331.09,198.84 C328.29,197.80 328.80,195.92 332.32,194.20 C333.80,193.48 335.00,192.30 335.00,191.57 C335.00,188.76 337.93,187.57 342.10,188.68 C344.28,189.26 346.29,189.35 346.58,188.87 C346.88,188.39 347.99,188.00 349.06,188.00 C350.13,188.00 351.00,187.66 351.00,187.25 C351.00,186.84 347.51,186.53 343.25,186.56 C334.55,186.63 328.00,185.35 328.00,183.58 C328.00,181.38 330.39,180.00 334.18,180.00 C337.09,180.00 338.32,179.43 339.57,177.54 C340.45,176.19 342.04,174.81 343.09,174.47 C344.14,174.14 345.00,173.03 345.00,172.00 C345.00,169.67 347.15,169.02 353.38,169.46 C356.06,169.65 359.59,169.34 361.21,168.78 C363.39,168.02 364.80,168.09 366.60,169.05 C368.48,170.06 369.31,170.09 370.22,169.18 C371.83,167.57 374.50,167.70 375.97,169.46 C377.03,170.74 377.48,170.73 379.60,169.34 C381.59,168.04 382.52,167.97 384.92,168.96 C387.03,169.84 388.37,169.87 389.84,169.09 C392.33,167.75 395.08,170.00 394.35,172.77 C394.01,174.07 394.45,174.57 395.94,174.57 C397.41,174.57 397.85,174.09 397.47,172.89 C396.88,171.05 399.37,168.00 401.45,168.00 C403.24,168.00 405.19,170.53 404.81,172.36 C404.64,173.19 404.84,173.90 405.25,173.93 C407.44,174.13 407.77,173.84 407.34,172.18 C406.68,169.65 409.42,167.64 412.49,168.41 C415.02,169.04 415.86,171.35 413.98,172.51 C412.36,173.51 413.90,175.00 416.57,175.00 C418.73,175.00 418.88,174.78 417.82,173.08 C416.87,171.56 416.90,170.82 417.97,169.53 C420.12,166.94 423.40,168.01 424.00,171.50 C424.47,174.20 424.92,174.52 428.51,174.70 C430.70,174.82 433.74,175.21 435.25,175.57 C438.25,176.29 439.07,174.47 436.78,172.18 C435.83,171.23 435.82,170.52 436.73,169.06 C437.67,167.56 437.61,167.07 436.45,166.62 C433.85,165.62 431.81,167.09 432.42,169.52 C432.75,170.87 432.40,172.25 431.53,172.97 C429.71,174.48 428.00,173.48 428.00,170.91 C428.00,169.82 427.31,167.88 426.48,166.61 C423.93,162.72 426.31,161.85 440.49,161.45 C453.75,161.08 455.23,160.77 454.38,158.54 C453.29,155.70 457.45,155.18 476.71,155.71 C487.26,156.00 496.93,155.98 498.20,155.65 C499.46,155.32 501.23,153.75 502.13,152.16 C503.72,149.33 503.92,149.27 511.13,149.54 C520.38,149.88 522.33,149.44 523.54,146.70 C524.07,145.50 525.29,144.36 526.25,144.18 C528.37,143.78 529.81,146.88 528.02,147.99 C525.84,149.34 527.82,151.17 530.13,149.93 C531.76,149.06 531.90,148.59 530.90,147.38 C529.91,146.19 530.00,145.57 531.34,144.23 C532.70,142.87 533.53,142.76 535.90,143.66 C537.57,144.29 539.36,144.39 540.15,143.89 C543.83,141.56 548.05,144.26 547.26,148.44 C546.74,151.12 547.52,151.59 549.94,150.06 C551.13,149.31 551.15,148.88 550.06,147.58 C549.02,146.32 549.01,145.70 550.00,144.51 C551.01,143.28 550.81,142.67 548.87,141.08 C545.26,138.13 547.40,137.05 558.31,136.33 C566.58,135.79 568.00,135.44 568.00,133.97 C568.00,133.02 568.56,131.85 569.25,131.37 C570.32,130.62 583.86,130.36 596.25,130.85 L 600.00 131.00 L 600.00 138.50 C600.00,145.21 598.93,148.16 597.73,144.75 C597.44,143.93 596.59,144.35 595.26,145.97 C592.69,149.09 593.39,151.00 597.11,151.00 L 600.00 151.00 L 600.00 158.50 C600.00,165.78 599.93,166.00 597.56,166.00 C594.56,166.00 593.42,167.60 595.04,169.54 C595.98,170.69 595.97,171.33 594.97,172.53 C593.90,173.83 594.18,174.24 596.85,175.25 C599.78,176.35 600.00,176.78 600.00,181.22 C600.00,185.89 599.93,186.00 596.93,186.00 C592.64,186.00 589.78,187.72 590.46,189.89 C591.13,191.99 586.91,194.68 584.89,193.43 C583.45,192.54 569.28,192.39 568.41,193.25 C568.11,193.56 568.43,194.71 569.12,195.82 C570.14,197.45 570.13,198.14 569.08,199.41 C567.99,200.71 568.04,201.08 569.33,201.57 C572.48,202.78 574.50,201.58 574.50,198.50 C574.50,196.45 575.05,195.43 576.30,195.19 C579.01,194.65 581.16,196.84 580.01,198.97 C578.91,201.04 579.60,202.00 582.20,202.00 C583.63,202.00 584.01,201.38 583.79,199.39 C583.46,196.38 585.83,194.34 588.47,195.35 C589.73,195.84 590.04,196.69 589.60,198.45 C589.10,200.44 589.35,200.85 590.99,200.73 C592.09,200.64 592.94,200.11 592.88,199.54 C592.48,195.93 594.87,194.33 598.07,196.04 C599.80,196.96 600.00,198.23 600.00,208.04 L 600.00 219.00 L 597.22 219.00 C593.12,219.00 589.74,216.35 590.96,214.08 C592.25,211.66 587.89,209.45 584.94,211.03 C583.87,211.61 578.79,212.30 573.65,212.57 C566.14,212.97 564.06,212.78 563.07,211.58 C562.38,210.76 562.10,209.65 562.43,209.12 C563.75,206.98 559.59,206.83 503.37,206.95 C492.62,206.97 492.20,207.05 490.61,209.48 C489.50,211.17 487.69,212.19 485.03,212.61 C481.55,213.17 481.27,213.41 482.58,214.73 C484.82,216.97 482.58,219.13 478.73,218.45 C476.19,218.00 475.88,218.15 476.86,219.33 C478.58,221.40 477.23,223.84 474.17,224.19 C472.11,224.43 471.43,225.12 471.19,227.20 C470.84,230.18 467.53,231.93 465.70,230.10 C465.09,229.49 463.82,229.00 462.86,229.00 C460.77,229.00 459.15,231.22 460.82,231.77 C462.93,232.48 462.08,236.01 459.53,237.17 C457.69,238.01 456.71,238.00 455.68,237.15 C454.65,236.29 453.48,236.29 451.07,237.13 C448.95,237.86 447.10,237.93 445.67,237.30 C443.55,236.38 438.33,238.00 439.54,239.21 C439.83,239.50 438.48,241.64 436.53,243.96 C434.46,246.44 432.99,249.29 432.98,250.84 C432.96,255.07 431.76,256.24 428.67,255.06 C426.35,254.18 426.00,254.30 426.00,255.96 C426.00,257.01 426.46,259.08 427.03,260.57 C428.47,264.37 427.51,266.41 423.62,267.82 C418.99,269.49 416.64,268.46 417.45,265.11 C417.80,263.67 418.11,262.05 418.16,261.50 C418.32,259.34 417.10,249.77 416.60,249.27 C415.69,248.36 417.99,245.00 419.54,245.00 C420.34,245.00 421.00,244.27 421.00,243.37 C421.00,242.47 421.79,241.01 422.75,240.12 C423.71,239.23 424.55,237.08 424.60,235.34 C424.68,232.77 424.26,232.09 422.35,231.73 C418.51,230.99 415.00,232.06 415.00,233.96 C415.00,234.91 414.10,236.50 413.00,237.50 C411.90,238.50 411.00,239.77 411.00,240.33 C411.00,240.89 410.36,242.05 409.58,242.92 C408.80,243.79 408.01,245.16 407.83,245.98 C407.36,248.06 404.01,250.57 400.55,251.42 C398.63,251.89 398.03,252.40 398.84,252.90 C399.51,253.32 399.78,254.41 399.43,255.33 C398.89,256.73 399.28,256.89 401.89,256.37 C403.78,255.99 405.59,256.24 406.50,257.00 C408.17,258.39 408.56,263.00 407.00,263.00 C406.45,263.00 406.05,263.34 406.12,263.75 C406.77,267.89 403.12,269.67 398.10,267.66 C394.66,266.28 394.01,266.32 390.07,268.08 C385.11,270.30 384.26,270.36 381.37,268.71 ZM 383.00 244.00 C383.00,242.74 380.96,242.74 379.00,244.00 C377.83,244.76 378.11,244.97 380.25,244.98 C381.76,244.99 383.00,244.55 383.00,244.00 ZM 401.00 243.00 C400.13,242.46 400.32,241.88 401.69,240.88 C403.05,239.89 403.58,238.29 403.57,235.25 C403.55,231.30 403.35,231.00 400.83,231.00 C397.07,231.00 396.49,232.53 398.53,237.06 C400.04,240.41 400.09,241.19 398.89,242.67 C397.97,243.81 397.92,244.13 398.75,243.63 C399.45,243.21 400.00,243.37 400.00,244.00 C400.00,244.61 400.50,244.81 401.11,244.43 C401.90,243.94 401.87,243.54 401.00,243.00 ZM 430.98 236.97 C430.53,236.13 430.60,234.67 431.13,233.72 C431.91,232.35 431.70,232.00 430.11,232.00 C427.84,232.00 426.40,233.63 428.15,234.22 C428.99,234.50 429.03,235.13 428.28,236.47 C427.54,237.78 427.56,238.68 428.33,239.51 C429.86,241.14 432.07,239.03 430.98,236.97 ZM 393.55 236.53 C395.40,232.11 395.39,232.00 393.00,232.00 C391.90,232.00 391.00,232.48 391.00,233.06 C391.00,233.64 391.45,233.84 392.00,233.50 C393.74,232.42 393.08,233.85 390.90,235.88 C389.33,237.34 387.92,237.70 385.40,237.29 C383.06,236.91 382.00,237.13 382.00,237.99 C382.00,238.78 382.92,239.06 384.52,238.75 C385.91,238.49 387.29,238.66 387.58,239.13 C388.91,241.29 392.16,239.87 393.55,236.53 ZM 375.00 225.00 C375.00,224.45 374.30,224.00 373.44,224.00 C372.58,224.00 372.16,224.45 372.50,225.00 C372.84,225.55 373.54,226.00 374.06,226.00 C374.58,226.00 375.00,225.55 375.00,225.00 ZM 432.50 225.00 C432.16,224.45 430.78,224.00 429.44,224.00 C428.10,224.00 427.00,224.45 427.00,225.00 C427.00,225.55 428.38,226.00 430.06,226.00 C431.84,226.00 432.86,225.58 432.50,225.00 ZM 402.65 219.46 C402.98,218.61 403.01,217.67 402.71,217.38 C401.83,216.50 397.89,219.02 398.53,220.05 C399.45,221.53 402.00,221.17 402.65,219.46 ZM 411.44 220.10 C411.74,219.61 411.33,218.96 410.53,218.65 C408.96,218.05 407.63,219.30 408.69,220.36 C409.60,221.26 410.79,221.15 411.44,220.10 ZM 440.41 215.70 L 441.06 212.91 L 434.28 213.20 C428.28,213.47 427.50,213.73 427.50,215.49 C427.50,216.58 428.28,217.62 429.25,217.81 C430.29,218.01 431.00,217.54 431.00,216.64 C431.00,214.51 434.49,213.66 436.94,215.19 C439.21,216.61 439.52,217.56 438.00,218.50 C437.45,218.84 437.00,219.64 437.00,220.27 C437.00,222.31 439.71,218.67 440.41,215.70 ZM 460.47 220.05 C461.19,218.88 458.30,216.70 457.04,217.47 C455.30,218.55 455.88,220.57 457.98,220.72 C459.07,220.81 460.19,220.50 460.47,220.05 ZM 468.25 217.19 C471.90,214.06 469.25,210.29 465.20,212.85 C464.17,213.51 464.22,213.94 465.48,214.98 C466.90,216.16 466.88,216.48 465.28,218.32 C463.31,220.56 465.13,219.87 468.25,217.19 ZM 450.24 215.50 C450.64,213.41 450.34,213.00 448.39,213.00 C446.73,213.00 446.23,213.43 446.64,214.50 C446.95,215.32 447.64,216.00 448.17,216.00 C448.69,216.00 448.84,216.45 448.50,217.00 C448.16,217.55 448.31,218.00 448.82,218.00 C449.34,218.00 449.98,216.88 450.24,215.50 ZM 403.49 215.01 C404.35,213.62 412.09,214.02 411.31,215.41 C410.98,216.01 411.32,215.93 412.06,215.24 C413.19,214.19 413.01,213.69 410.96,212.25 C409.61,211.30 408.16,210.62 407.75,210.76 C407.34,210.89 407.00,210.62 407.00,210.16 C407.00,208.63 412.02,207.00 416.71,207.00 C419.25,207.00 421.00,206.66 420.58,206.25 C419.73,205.40 404.00,205.21 404.00,206.05 C404.00,206.35 404.54,207.14 405.20,207.80 C406.12,208.72 405.96,209.33 404.45,210.48 C401.87,212.45 399.72,212.00 398.51,209.24 C397.25,206.37 394.40,206.35 393.66,209.20 C392.98,211.81 394.53,214.00 397.06,214.00 C398.06,214.00 399.16,214.45 399.50,215.00 C400.29,216.29 402.70,216.29 403.49,215.01 ZM 460.35 214.53 C461.04,212.72 459.71,211.79 457.59,212.60 C455.69,213.33 455.52,214.64 457.25,215.34 C459.33,216.18 459.76,216.06 460.35,214.53 ZM 388.50 211.93 C388.50,211.16 387.71,210.38 386.75,210.19 C385.03,209.86 384.31,211.98 385.69,213.35 C386.74,214.40 388.50,213.51 388.50,211.93 ZM 596.81 211.93 C596.61,211.33 596.02,210.85 595.50,210.85 C594.98,210.85 594.39,211.33 594.19,211.93 C593.99,212.52 594.58,213.00 595.50,213.00 C596.42,213.00 597.01,212.52 596.81,211.93 ZM 393.50 200.99 C393.85,200.44 393.40,199.71 392.52,199.37 C390.61,198.63 389.54,199.44 390.46,200.93 C391.29,202.28 392.69,202.30 393.50,200.99 ZM 432.46 201.38 C433.96,200.80 433.96,200.61 432.46,198.96 C430.95,197.29 430.98,197.08 432.85,196.08 C433.96,195.49 435.57,195.00 436.43,195.00 C438.42,195.00 438.44,193.61 436.48,191.99 C435.65,191.29 435.09,189.78 435.23,188.61 C435.38,187.45 435.05,186.42 434.50,186.31 C433.95,186.21 433.62,187.06 433.76,188.20 C434.05,190.50 432.39,193.00 430.57,193.00 C429.92,193.00 428.51,192.36 427.44,191.57 C425.89,190.42 425.75,189.88 426.75,188.87 C428.51,187.08 428.31,186.32 425.94,185.69 C423.78,185.13 423.51,185.53 422.63,190.63 C422.15,193.48 422.37,193.82 425.07,194.36 C428.42,195.03 430.02,197.73 427.90,199.10 C426.71,199.86 426.73,200.15 428.00,200.98 C429.78,202.15 430.32,202.20 432.46,201.38 ZM 450.86 198.91 C449.00,197.76 451.81,194.83 454.41,195.20 C455.96,195.42 456.49,196.21 456.46,198.25 C456.43,200.50 456.86,201.00 458.83,201.00 C460.73,201.00 461.01,200.71 460.14,199.67 C459.32,198.68 459.40,197.84 460.44,196.42 C461.67,194.74 462.23,194.65 465.00,195.69 C467.30,196.56 468.80,196.59 470.51,195.81 C473.74,194.34 476.00,195.43 476.00,198.47 C476.00,199.86 476.45,201.00 477.00,201.00 C477.55,201.00 478.00,200.19 478.00,199.20 C478.00,195.32 482.60,193.61 485.06,196.58 C486.09,197.82 486.11,198.32 485.14,198.91 C484.17,199.51 484.20,199.92 485.24,200.78 C487.02,202.26 488.72,201.06 489.15,198.00 C489.42,196.09 490.09,195.50 492.00,195.50 C494.13,195.50 494.46,195.91 494.21,198.25 C493.97,200.57 494.30,201.00 496.32,201.00 C498.34,201.00 498.65,200.60 498.25,198.51 C497.66,195.42 500.07,194.25 503.68,195.90 C505.60,196.77 506.56,196.78 507.61,195.91 C510.58,193.44 508.74,192.94 498.54,193.44 C492.16,193.75 487.84,193.56 487.47,192.96 C487.14,192.41 486.39,192.26 485.80,192.62 C484.42,193.48 461.85,193.41 459.12,192.54 C457.76,192.11 457.00,191.03 457.00,189.54 C457.00,187.14 455.44,185.97 453.25,186.73 C452.56,186.97 452.00,187.97 452.00,188.96 C452.00,189.95 451.29,191.35 450.42,192.07 C448.12,193.98 445.42,191.96 445.79,188.61 C446.03,186.44 445.67,186.00 443.67,186.00 C441.55,186.00 441.28,186.43 441.39,189.74 C441.47,192.53 442.22,194.10 444.32,195.89 C446.43,197.69 446.81,198.50 445.84,199.10 C444.90,199.68 445.23,200.15 447.02,200.83 C449.87,201.91 453.09,200.29 450.86,198.91 ZM 470.00 200.50 C470.00,199.67 469.11,199.00 468.00,199.00 C466.89,199.00 466.00,199.67 466.00,200.50 C466.00,201.33 466.89,202.00 468.00,202.00 C469.11,202.00 470.00,201.33 470.00,200.50 ZM 516.59 199.38 C516.08,198.04 515.67,197.93 514.73,198.87 C513.78,199.82 513.84,200.28 514.98,200.99 C516.84,202.14 517.43,201.55 516.59,199.38 ZM 527.00 200.49 C527.00,199.89 526.44,198.84 525.76,198.16 C524.77,197.17 524.82,196.72 526.01,195.97 C528.00,194.71 533.00,194.74 533.00,196.01 C533.00,196.61 533.81,196.51 535.00,195.77 C536.10,195.08 537.00,194.29 537.00,194.01 C537.00,193.73 534.19,193.55 530.75,193.61 C521.53,193.78 521.57,193.77 522.92,195.40 C523.57,196.19 523.81,197.93 523.45,199.35 C522.91,201.49 523.14,201.87 524.91,201.73 C526.06,201.65 527.00,201.09 527.00,200.49 ZM 555.68 198.17 C555.54,196.10 556.00,195.43 557.75,195.18 C559.35,194.95 560.03,195.39 560.12,196.68 C560.18,197.68 560.29,199.18 560.37,200.00 C560.44,200.82 561.40,201.50 562.50,201.50 C563.97,201.50 564.50,200.83 564.50,199.00 C564.50,197.62 564.86,195.94 565.31,195.25 C565.81,194.48 565.61,193.95 564.81,193.88 C560.24,193.47 542.08,193.43 540.06,193.83 L 537.61 194.31 L 539.91 195.16 C541.75,195.84 542.09,196.51 541.59,198.51 C541.05,200.66 541.30,201.00 543.42,201.00 C545.48,201.00 545.85,200.56 545.69,198.25 C545.53,195.93 545.89,195.50 548.00,195.50 C549.91,195.50 550.58,196.09 550.85,198.00 C551.51,202.71 555.99,202.87 555.68,198.17 ZM 537.95 200.67 C537.70,200.45 536.53,199.77 535.35,199.15 C533.70,198.30 533.09,198.33 532.71,199.31 C532.39,200.15 533.27,200.67 535.31,200.83 C537.01,200.96 538.19,200.88 537.95,200.67 ZM 402.11 197.59 C404.74,194.57 404.70,193.64 401.90,192.98 C398.78,192.24 397.04,189.24 399.00,187.97 C401.34,186.46 398.37,185.03 394.93,186.02 C393.38,186.46 390.41,186.60 388.31,186.31 L 384.50 185.80 L 384.33 190.38 C384.16,194.94 384.18,194.97 388.20,196.05 C391.09,196.83 392.56,196.84 393.33,196.07 C394.80,194.60 397.53,194.73 398.85,196.32 C399.66,197.29 399.64,197.96 398.78,198.82 C397.87,199.73 397.88,200.00 398.81,200.00 C399.47,200.00 400.96,198.92 402.11,197.59 ZM 516.87 195.66 C518.24,194.00 517.35,193.00 514.50,193.00 C511.45,193.00 510.73,194.08 512.77,195.62 C514.97,197.30 515.50,197.30 516.87,195.66 ZM 378.00 193.78 C372.52,192.43 371.74,192.42 371.30,193.67 C370.82,195.04 374.21,195.70 378.50,195.08 L 381.50 194.64 L 378.00 193.78 ZM 418.22 193.45 C418.91,192.76 416.76,188.02 415.75,188.01 C415.34,188.00 414.99,188.34 414.99,188.75 C414.98,189.16 414.70,190.51 414.37,191.75 C413.90,193.52 414.18,194.00 415.72,194.00 C416.79,194.00 417.91,193.75 418.22,193.45 ZM 367.30 188.13 C368.84,187.97 370.72,188.36 371.48,188.98 C372.53,189.86 373.64,189.70 376.18,188.31 L 379.50 186.50 L 373.50 185.99 C370.20,185.71 366.94,185.88 366.26,186.36 C365.58,186.84 363.67,187.03 362.02,186.79 C359.18,186.37 359.11,186.44 360.76,188.05 C361.72,188.98 362.95,189.45 363.50,189.09 C364.05,188.72 365.76,188.29 367.30,188.13 ZM 550.00 187.00 C550.00,186.45 549.10,186.00 548.00,186.00 C546.90,186.00 546.00,186.45 546.00,187.00 C546.00,187.55 546.90,188.00 548.00,188.00 C549.10,188.00 550.00,187.55 550.00,187.00 ZM 414.50 182.00 C416.04,181.34 415.52,181.12 412.19,181.07 C409.56,181.03 408.12,181.39 408.50,182.00 C409.23,183.19 411.73,183.19 414.50,182.00 ZM 479.55 180.14 C478.58,177.00 480.31,176.17 487.50,176.34 C493.77,176.49 494.50,176.71 494.50,178.50 C494.50,180.09 493.89,180.46 491.50,180.33 C487.98,180.12 483.55,180.89 484.25,181.58 C484.79,182.12 520.00,182.69 520.00,182.16 C520.00,181.97 519.00,181.01 517.78,180.02 C515.88,178.49 515.76,178.00 516.90,176.61 C517.64,175.73 519.01,175.00 519.96,175.00 C522.49,175.00 522.89,174.17 521.64,171.52 C520.76,169.66 519.81,169.18 517.25,169.32 C514.91,169.45 514.13,169.90 514.51,170.89 C514.81,171.66 514.33,173.08 513.46,174.05 C512.58,175.01 511.95,176.41 512.05,177.15 C512.44,180.00 511.93,181.00 510.11,181.00 C508.04,181.00 506.76,178.79 507.59,176.63 C508.14,175.18 505.42,174.02 503.21,174.76 C502.22,175.09 502.19,175.52 503.07,176.58 C504.76,178.63 503.43,181.00 500.59,181.00 C497.55,181.00 496.42,179.41 498.05,177.44 C499.04,176.25 498.93,175.58 497.50,174.00 C496.05,172.39 495.95,171.76 496.98,170.52 C498.06,169.22 497.82,169.00 495.32,169.00 C493.72,169.00 491.87,168.47 491.22,167.82 C490.57,167.17 489.72,166.95 489.33,167.33 C488.95,167.72 489.17,168.57 489.82,169.22 C490.47,169.87 491.00,171.21 491.00,172.20 C491.00,173.57 490.21,174.00 487.70,174.00 C483.33,174.00 481.49,172.22 483.54,169.96 C485.77,167.49 483.26,165.57 479.62,166.95 C478.18,167.50 475.71,167.69 474.12,167.37 C471.26,166.80 469.05,168.29 470.98,169.49 C474.06,171.39 470.11,175.36 466.16,174.33 C463.94,173.75 463.19,170.62 465.00,169.50 C466.84,168.36 466.03,166.86 463.75,167.18 C461.92,167.44 461.50,168.14 461.50,170.88 C461.50,173.01 462.05,174.42 463.00,174.70 C463.83,174.95 465.30,175.57 466.27,176.10 C467.42,176.71 468.74,176.67 470.02,175.99 C471.42,175.24 472.59,175.25 474.00,176.00 C476.38,177.27 476.53,178.75 474.53,180.97 C473.20,182.44 473.38,182.55 476.56,182.18 C479.25,181.87 479.94,181.39 479.55,180.14 ZM 535.71 181.63 C536.05,181.28 534.23,181.00 531.67,181.00 C528.96,181.00 527.00,181.46 527.00,182.09 C527.00,183.23 534.51,182.82 535.71,181.63 ZM 582.50 182.00 C582.86,181.42 581.93,181.01 580.31,181.02 C578.13,181.03 577.84,181.25 579.00,182.00 C580.92,183.24 581.73,183.24 582.50,182.00 ZM 470.25 180.78 C468.63,180.00 467.37,180.00 465.75,180.78 C463.77,181.73 464.05,181.86 468.00,181.86 C471.95,181.86 472.23,181.73 470.25,180.78 ZM 445.56 171.21 C445.61,167.84 445.29,166.99 444.06,167.24 C443.11,167.43 442.62,168.38 442.80,169.69 C442.96,170.86 442.62,172.11 442.05,172.47 C440.03,173.72 440.90,176.15 443.25,175.82 C445.17,175.55 445.51,174.87 445.56,171.21 ZM 559.55 170.75 C559.67,167.78 559.32,166.01 558.62,166.02 C556.59,166.04 555.43,167.46 555.38,170.00 C555.35,171.38 554.97,173.32 554.53,174.33 C553.84,175.89 554.14,176.11 556.54,175.83 C559.15,175.52 559.37,175.16 559.55,170.75 ZM 370.00 174.17 C370.00,172.86 368.81,172.00 367.84,172.60 C366.81,173.24 367.70,175.00 369.06,175.00 C369.58,175.00 370.00,174.62 370.00,174.17 ZM 454.85 172.75 C454.79,171.51 455.08,169.67 455.51,168.66 C456.15,167.14 455.88,166.88 453.89,167.16 C451.85,167.45 451.52,168.01 451.66,171.00 C451.86,175.32 451.71,175.00 453.49,175.00 C454.40,175.00 454.93,174.13 454.85,172.75 ZM 531.34 172.46 C531.03,171.64 531.31,170.34 531.95,169.56 C532.89,168.43 532.69,167.90 530.96,166.98 C528.13,165.46 526.06,167.16 527.95,169.44 C528.65,170.29 528.97,171.63 528.67,172.42 C528.36,173.22 528.65,174.06 529.31,174.30 C531.09,174.94 531.99,174.13 531.34,172.46 ZM 541.52 173.20 C541.24,172.45 541.00,170.80 541.00,169.53 C541.00,166.91 539.02,165.73 536.91,167.09 C535.74,167.84 535.73,168.15 536.84,168.86 C537.57,169.34 538.08,170.57 537.97,171.61 C537.66,174.57 537.87,174.89 540.02,174.72 C541.29,174.63 541.85,174.06 541.52,173.20 ZM 568.44 172.61 C568.11,171.29 568.32,169.92 568.92,169.55 C570.83,168.37 570.07,166.85 567.75,167.18 C563.97,167.72 564.78,173.89 568.77,174.93 C568.92,174.97 568.77,173.92 568.44,172.61 ZM 588.73 171.00 C588.73,167.57 588.42,167.00 586.56,167.00 C584.70,167.00 584.41,167.55 584.45,171.00 C584.49,174.38 584.82,174.99 586.61,175.00 C588.41,175.00 588.73,174.41 588.73,171.00 ZM 379.00 173.00 C379.00,172.45 378.55,172.00 378.00,172.00 C377.45,172.00 377.00,172.45 377.00,173.00 C377.00,173.55 377.45,174.00 378.00,174.00 C378.55,174.00 379.00,173.55 379.00,173.00 ZM 578.01 172.75 C578.02,172.06 578.27,170.58 578.57,169.46 C579.00,167.89 578.65,167.43 577.04,167.43 C575.68,167.43 575.13,167.91 575.48,168.80 C575.76,169.55 576.00,171.03 576.00,172.08 C576.00,173.14 576.45,174.00 577.00,174.00 C577.55,174.00 578.01,173.44 578.01,172.75 ZM 550.50 168.99 C550.85,168.44 550.40,167.71 549.52,167.37 C547.61,166.63 546.54,167.44 547.46,168.93 C548.29,170.28 549.69,170.30 550.50,168.99 ZM 497.50 162.00 C494.77,160.83 494.00,160.83 494.00,162.00 C494.00,162.55 495.24,162.97 496.75,162.93 C499.19,162.87 499.27,162.76 497.50,162.00 ZM 559.83 149.71 C560.62,148.75 560.41,148.11 559.00,147.23 C556.86,145.89 555.45,147.14 556.38,149.55 C557.07,151.35 558.42,151.41 559.83,149.71 ZM 577.42 150.39 C579.85,149.46 579.29,148.00 576.50,148.00 C574.07,148.00 573.31,148.97 574.67,150.33 C575.48,151.14 575.46,151.14 577.42,150.39 ZM 588.22 149.84 C588.81,148.07 587.88,143.00 586.96,143.00 C585.80,143.00 582.92,149.07 583.58,150.12 C584.37,151.40 587.77,151.20 588.22,149.84 ZM 570.00 149.00 C570.00,148.45 569.07,148.00 567.94,148.00 C566.81,148.00 566.16,148.45 566.50,149.00 C566.84,149.55 567.77,150.00 568.56,150.00 C569.35,150.00 570.00,149.55 570.00,149.00 ZM 568.10 143.70 C566.82,142.42 565.52,143.41 566.47,144.95 C566.84,145.55 567.60,145.75 568.16,145.40 C568.84,144.98 568.82,144.42 568.10,143.70 ZM 558.44 144.10 C558.74,143.61 558.28,142.94 557.41,142.60 C554.66,141.55 553.68,141.91 555.00,143.50 C556.41,145.20 557.63,145.42 558.44,144.10 ZM 0.67 237.33 C0.30,236.97 -0.00,232.92 -0.00,228.33 C-0.00,220.84 0.19,220.00 1.88,220.00 C3.40,220.00 3.71,219.36 3.50,216.75 C3.30,214.39 2.78,213.58 1.61,213.79 C0.27,214.04 0.00,213.06 0.00,208.04 C0.00,203.58 0.36,202.00 1.38,202.00 C2.14,202.00 3.32,201.32 4.00,200.50 C4.86,199.46 4.90,199.00 4.12,199.00 C2.22,199.00 2.83,195.01 4.75,194.93 C6.23,194.87 6.20,194.74 4.50,194.07 C3.40,193.63 1.96,193.48 1.30,193.73 C0.38,194.07 0.09,188.11 0.06,168.71 L 0.01 143.25 L 6.76 143.24 C10.47,143.23 14.30,143.65 15.28,144.17 C16.86,145.00 17.04,144.68 16.83,141.49 C16.53,137.05 17.91,136.04 24.25,136.02 C28.22,136.00 29.00,135.69 29.00,134.12 C29.00,130.92 31.21,130.11 39.03,130.42 C48.19,130.80 49.16,130.48 48.39,127.41 C47.96,125.69 48.28,124.83 49.54,124.35 C51.73,123.50 53.99,126.34 53.28,129.05 C52.72,131.17 52.57,131.12 60.81,131.18 C66.69,131.22 67.82,130.70 66.18,128.72 C65.58,127.99 65.35,126.39 65.67,125.16 C66.20,123.12 65.94,122.94 62.63,123.16 C58.55,123.44 56.64,122.11 57.17,119.36 C57.50,117.62 58.99,117.49 79.47,117.28 C102.86,117.04 104.32,117.33 101.47,121.69 C100.67,122.90 100.29,124.60 100.62,125.46 C100.95,126.32 100.72,127.64 100.10,128.38 C99.25,129.41 99.35,130.05 100.53,131.02 C102.37,132.56 103.69,131.50 104.17,128.10 C104.65,124.60 107.52,123.09 109.65,125.22 C111.06,126.63 111.12,127.15 110.00,128.50 C108.88,129.84 108.93,130.36 110.31,131.74 C112.38,133.81 113.50,132.73 113.50,128.67 C113.50,125.96 113.86,125.50 116.00,125.50 C117.91,125.50 118.58,126.09 118.85,128.00 C119.35,131.64 120.94,133.29 122.61,131.91 C123.63,131.06 123.69,130.30 122.88,128.78 C122.06,127.25 122.15,126.43 123.22,125.35 C125.37,123.20 128.00,124.73 128.00,128.14 C128.00,131.51 129.93,132.64 132.92,131.04 C135.63,129.59 139.00,131.30 139.00,134.12 C139.00,135.32 139.51,135.99 140.25,135.73 C140.94,135.49 141.37,134.58 141.22,133.70 C140.87,131.73 144.66,129.52 146.31,130.73 C147.70,131.75 157.22,131.60 161.33,130.50 C163.31,129.97 164.61,130.18 165.62,131.19 C167.36,132.93 166.45,135.95 164.14,136.12 C160.79,136.36 150.44,135.86 148.75,135.37 C147.79,135.09 147.00,135.32 147.00,135.87 C147.00,136.42 148.01,137.17 149.25,137.55 C150.49,137.93 152.29,138.93 153.25,139.77 C154.83,141.16 155.18,141.15 156.83,139.65 C158.94,137.74 161.13,137.53 162.69,139.09 C163.48,139.88 164.36,139.88 165.87,139.07 C168.86,137.47 172.71,138.73 173.42,141.53 C173.91,143.47 174.76,143.94 178.25,144.19 C182.42,144.49 182.50,144.57 182.40,148.08 C182.30,151.62 182.34,151.65 186.37,151.58 C189.59,151.52 190.52,151.89 190.82,153.38 C191.03,154.41 190.60,155.63 189.88,156.08 C187.61,157.48 191.84,158.42 194.36,157.08 C195.95,156.23 197.34,156.18 199.28,156.92 C200.77,157.48 202.68,157.68 203.53,157.35 C206.13,156.35 213.77,159.01 214.32,161.10 C214.59,162.15 215.66,163.00 216.71,163.00 C219.61,163.00 221.09,164.95 219.89,167.20 C219.19,168.51 219.23,170.17 220.02,172.55 C220.97,175.45 221.63,176.00 224.12,176.00 C226.35,176.00 227.51,176.73 228.77,178.91 C229.68,180.52 231.80,182.43 233.47,183.16 C235.14,183.90 236.50,185.21 236.50,186.07 C236.50,186.93 237.30,188.44 238.28,189.42 C239.67,190.81 239.81,191.52 238.91,192.61 C237.61,194.18 234.20,194.41 232.09,193.08 C231.22,192.53 229.97,192.62 228.84,193.33 C227.40,194.23 225.95,194.11 222.26,192.78 C219.23,191.69 217.18,191.42 216.56,192.04 C216.03,192.57 213.89,193.00 211.80,193.00 C207.22,193.00 206.99,193.97 211.00,196.34 C214.02,198.12 215.21,200.40 212.60,199.40 C211.83,199.11 210.92,199.32 210.58,199.87 C210.20,200.48 211.55,200.85 214.06,200.82 C218.64,200.76 220.36,201.89 219.83,204.63 C219.64,205.65 220.29,207.29 221.29,208.29 C222.53,209.53 222.88,210.79 222.39,212.30 C222.00,213.51 221.68,215.18 221.68,216.00 C221.68,216.82 220.96,218.05 220.09,218.72 C218.66,219.82 218.67,219.94 220.25,219.97 C222.55,220.01 222.55,223.64 220.25,224.85 C218.05,226.00 214.00,224.56 214.00,222.62 C214.00,221.82 214.56,220.94 215.25,220.66 C216.87,220.00 214.27,218.04 211.75,218.02 C209.50,218.00 209.50,219.91 211.75,221.56 C214.16,223.32 212.78,224.31 207.75,224.41 C204.07,224.49 203.46,224.20 203.18,222.25 C203.00,220.97 203.39,220.00 204.09,220.00 C204.86,220.00 204.64,219.26 203.50,218.00 C202.50,216.90 202.16,216.00 202.74,216.00 C203.31,216.00 204.06,215.29 204.39,214.42 C204.91,213.07 204.26,212.90 199.99,213.30 C195.23,213.75 194.95,213.65 194.43,211.14 C194.13,209.69 193.43,207.68 192.89,206.69 C191.81,204.70 192.58,201.00 194.08,201.00 C194.59,201.00 194.45,200.07 193.76,198.94 C192.69,197.19 192.78,196.67 194.31,195.54 C195.31,194.80 195.76,193.98 195.31,193.73 C194.86,193.47 188.23,193.32 180.56,193.38 C166.32,193.50 162.87,192.82 162.43,189.77 C162.30,188.82 160.79,186.36 159.09,184.30 C155.81,180.31 155.28,178.12 157.16,176.24 C158.03,175.37 158.00,174.70 157.00,173.50 C154.17,170.08 157.16,169.51 178.01,169.46 C188.96,169.43 198.21,169.12 198.56,168.77 C199.89,167.45 197.90,165.98 196.09,166.95 C194.26,167.93 181.42,167.75 180.40,166.73 C180.08,166.42 178.59,166.59 177.08,167.12 C175.30,167.74 173.40,167.72 171.66,167.06 C169.79,166.35 168.25,166.39 166.50,167.18 C164.62,168.04 163.36,168.03 161.46,167.16 C159.45,166.25 158.17,166.32 155.34,167.50 C152.30,168.77 151.95,169.23 153.02,170.52 C154.04,171.76 153.96,172.38 152.57,173.92 C151.46,175.15 151.24,176.03 151.93,176.46 C153.72,177.57 153.12,180.86 150.91,182.05 C149.77,182.66 149.08,183.41 149.38,183.71 C149.68,184.02 149.48,185.10 148.93,186.13 C148.10,187.67 148.29,188.00 149.99,188.00 C151.20,188.00 152.50,189.01 153.17,190.47 C153.84,191.95 155.74,193.41 157.90,194.10 C159.88,194.74 162.03,195.68 162.67,196.19 C163.41,196.77 164.61,196.64 165.93,195.81 C168.52,194.19 171.19,195.62 172.05,199.09 C172.49,200.89 173.23,201.43 174.96,201.24 C177.99,200.89 180.20,202.81 179.46,205.14 C179.06,206.39 179.36,207.00 180.37,207.00 C182.43,207.00 183.60,211.01 181.86,212.11 C181.11,212.58 179.92,212.98 179.21,212.98 C178.25,213.00 178.19,213.49 178.98,214.96 C179.86,216.61 179.59,217.16 177.26,218.42 C174.48,219.93 174.65,220.03 180.50,220.34 C183.42,220.50 183.49,220.62 183.15,225.00 C182.72,230.47 182.43,231.00 179.88,231.00 C176.49,231.00 174.00,229.08 174.00,226.46 C174.00,224.78 173.45,224.00 172.25,224.02 C169.42,224.04 168.34,225.31 168.42,228.50 C168.50,231.41 168.35,231.51 163.41,231.80 C157.91,232.12 154.79,230.22 156.74,227.75 C157.28,227.06 157.51,224.81 157.25,222.75 L 156.78 219.00 L 149.36 219.00 C141.27,219.00 139.79,217.95 141.76,213.62 C142.57,211.86 142.38,210.84 140.92,208.94 C139.42,206.99 139.04,206.84 139.02,208.21 C139.00,210.14 135.49,212.42 133.98,211.49 C133.44,211.15 133.00,209.58 133.00,207.98 L 133.00 205.08 L 125.25 204.79 C118.16,204.53 117.47,204.31 117.19,202.33 C116.95,200.66 115.97,200.00 112.96,199.49 C110.81,199.13 107.76,199.11 106.18,199.46 C102.22,200.33 100.48,198.18 102.65,195.09 C103.85,193.38 104.97,192.92 107.12,193.23 C109.53,193.58 110.00,193.30 110.00,191.50 C110.00,188.29 106.05,185.16 103.00,185.96 C101.21,186.42 100.58,187.19 100.79,188.65 C101.13,191.11 98.62,193.45 96.51,192.64 C95.63,192.31 95.00,190.82 95.00,189.10 C95.00,187.15 94.40,185.94 93.24,185.58 C92.27,185.27 91.04,184.00 90.49,182.76 C89.70,180.96 88.69,180.50 85.50,180.50 C82.21,180.50 81.47,180.14 81.36,178.50 C81.28,177.40 81.16,175.94 81.11,175.25 C81.00,173.95 76.83,173.50 75.68,174.66 C75.31,175.02 75.51,175.91 76.12,176.65 C77.66,178.50 76.46,181.00 74.03,181.00 C72.66,181.00 72.00,181.66 72.00,183.01 C72.00,185.01 66.37,189.35 64.93,188.46 C64.55,188.22 64.02,188.80 63.77,189.76 C63.13,192.20 55.22,194.41 51.80,193.12 C49.88,192.38 48.73,192.49 47.35,193.53 C46.33,194.30 46.03,194.95 46.68,194.97 C47.33,194.99 48.61,195.75 49.52,196.66 C51.07,198.21 51.38,198.21 53.98,196.67 C56.29,195.31 56.96,195.25 57.88,196.35 C59.34,198.11 58.31,199.00 54.83,199.00 C52.47,199.00 52.00,199.42 52.00,201.51 C52.00,203.29 51.04,204.61 48.75,205.98 C46.96,207.05 44.25,209.07 42.73,210.46 C41.21,211.86 39.52,213.00 38.98,213.00 C38.44,213.00 38.00,213.87 38.00,214.94 C38.00,216.01 37.53,217.17 36.96,217.53 C35.57,218.38 32.99,216.18 33.58,214.65 C33.85,213.95 33.09,213.36 31.77,213.26 C29.77,213.09 29.49,213.54 29.45,217.05 C29.39,221.92 27.66,223.79 22.72,224.29 C18.64,224.70 17.41,225.54 15.61,229.17 C14.91,230.59 13.38,231.62 11.72,231.82 C9.88,232.03 8.48,233.10 7.47,235.07 C6.02,237.86 2.40,239.07 0.67,237.33 ZM 165.42 220.39 C167.29,219.67 167.55,217.03 165.75,216.92 C164.76,216.86 164.76,216.74 165.76,216.34 C166.45,216.06 166.76,215.42 166.45,214.91 C165.49,213.37 169.04,213.90 170.69,215.55 C172.09,216.95 172.41,216.92 173.99,215.30 C174.96,214.31 175.56,213.17 175.33,212.78 C174.72,211.71 165.63,213.12 164.77,214.40 C164.32,215.07 164.02,214.81 164.02,213.71 C164.00,212.22 163.66,212.11 161.94,213.03 C160.81,213.64 160.07,214.67 160.31,215.32 C160.55,215.97 160.01,217.36 159.12,218.42 C158.23,219.48 157.97,220.07 158.55,219.74 C159.12,219.40 160.25,219.55 161.05,220.05 C162.78,221.15 163.34,221.19 165.42,220.39 ZM 213.82 213.47 C213.43,212.35 211.28,211.95 209.44,212.66 C208.38,213.07 208.35,213.46 209.29,214.47 C210.59,215.85 214.37,215.03 213.82,213.47 ZM 22.81 213.06 C23.06,212.31 22.69,211.94 21.94,212.19 C21.22,212.43 20.43,213.22 20.19,213.94 C19.94,214.69 20.31,215.06 21.06,214.81 C21.78,214.57 22.57,213.78 22.81,213.06 ZM 151.80 209.43 C151.80,206.69 151.46,205.99 150.32,206.43 C149.50,206.74 148.66,207.00 148.45,207.00 C148.24,207.00 148.30,207.63 148.60,208.40 C148.89,209.17 148.66,210.09 148.07,210.46 C146.19,211.62 146.92,213.00 149.40,213.00 C151.48,213.00 151.80,212.53 151.80,209.43 ZM 162.00 205.89 C162.00,204.84 160.81,204.75 158.50,205.64 C157.26,206.12 157.15,206.47 158.08,207.05 C159.51,207.94 162.00,207.20 162.00,205.89 ZM 165.22 198.82 C163.69,197.29 162.76,198.22 163.61,200.42 C164.07,201.64 164.58,201.82 165.33,201.07 C166.09,200.31 166.06,199.66 165.22,198.82 ZM 13.62 198.60 C13.20,196.95 13.50,196.02 14.57,195.61 C16.72,194.79 15.38,193.00 12.61,193.00 C9.34,193.00 8.90,193.90 11.08,196.08 C13.46,198.46 13.51,199.72 11.25,200.31 C9.99,200.64 10.16,200.80 11.86,200.88 C13.87,200.98 14.13,200.64 13.62,198.60 ZM 22.75 198.39 C22.75,196.95 23.35,195.40 24.07,194.95 C25.80,193.89 20.70,192.52 18.35,193.42 C16.84,194.00 16.85,194.17 18.50,195.38 C19.69,196.24 20.12,197.44 19.75,198.85 C19.33,200.46 19.64,201.00 20.97,201.00 C22.22,201.00 22.75,200.23 22.75,198.39 ZM 42.00 200.06 C42.00,199.54 41.55,198.84 41.00,198.50 C40.45,198.16 40.00,198.58 40.00,199.44 C40.00,200.30 40.45,201.00 41.00,201.00 C41.55,201.00 42.00,200.58 42.00,200.06 ZM 203.53 199.11 C203.19,198.03 203.58,196.57 204.42,195.72 C206.19,193.95 205.49,193.00 202.43,193.00 C200.47,193.00 200.22,193.48 200.35,196.99 C200.47,200.13 200.89,200.99 202.32,200.99 C203.65,201.00 203.97,200.49 203.53,199.11 ZM 35.00 193.76 C35.00,192.73 30.82,192.83 29.13,193.90 C28.02,194.60 28.10,194.96 29.56,195.78 C31.37,196.79 35.00,195.44 35.00,193.76 ZM 42.89 193.91 C41.28,192.89 37.00,192.70 37.00,193.64 C37.00,195.35 40.55,196.78 42.37,195.80 C43.91,194.98 44.01,194.62 42.89,193.91 ZM 124.00 193.50 C125.05,192.23 124.84,192.00 122.62,192.00 C120.96,192.00 120.00,192.55 120.00,193.50 C120.00,194.32 120.62,195.00 121.38,195.00 C122.14,195.00 123.32,194.32 124.00,193.50 ZM 132.98 193.14 C132.98,192.79 132.55,191.84 132.04,191.03 C131.45,190.10 131.50,189.10 132.18,188.28 C133.40,186.82 133.37,186.80 130.00,186.58 C127.77,186.43 127.51,186.78 127.60,189.81 C127.66,191.67 128.29,193.56 129.01,194.01 C130.37,194.84 133.01,194.27 132.98,193.14 ZM 142.28 189.75 C142.90,185.78 142.20,184.94 139.21,186.09 C137.42,186.77 137.11,187.36 137.82,188.73 C138.32,189.71 138.53,191.06 138.28,191.75 C138.02,192.48 138.65,193.00 139.80,193.00 C141.26,193.00 141.91,192.15 142.28,189.75 ZM 117.50 190.00 C117.14,189.43 118.08,188.99 119.69,188.98 C121.24,188.98 123.18,188.53 124.00,187.98 C126.58,186.29 123.10,184.92 118.00,185.63 C112.66,186.36 109.20,187.92 112.78,187.97 C114.04,187.99 115.32,188.68 115.64,189.50 C115.95,190.32 116.64,191.00 117.17,191.00 C117.69,191.00 117.84,190.55 117.50,190.00 ZM 226.00 187.00 C226.00,186.45 225.55,186.00 225.00,186.00 C224.45,186.00 224.00,186.45 224.00,187.00 C224.00,187.55 224.45,188.00 225.00,188.00 C225.55,188.00 226.00,187.55 226.00,187.00 ZM 23.76 182.08 C23.90,182.04 23.48,181.14 22.82,180.08 C21.88,178.58 21.89,177.84 22.86,176.67 C23.78,175.57 23.80,174.99 22.95,174.47 C22.33,174.08 22.01,172.74 22.25,171.49 C22.59,169.68 21.97,168.88 19.19,167.56 C16.63,166.33 15.42,166.19 14.60,167.01 C13.80,167.82 13.97,168.39 15.25,169.11 C17.42,170.34 17.52,172.59 15.44,173.39 C14.58,173.72 14.16,174.45 14.51,175.01 C14.85,175.57 15.48,175.82 15.91,175.56 C16.85,174.98 21.00,177.77 21.00,178.99 C21.00,180.45 17.20,181.18 15.20,180.11 C12.83,178.84 9.00,179.78 9.00,181.64 C9.00,182.76 10.48,182.95 16.25,182.60 C20.24,182.36 23.62,182.12 23.76,182.08 ZM 61.57 181.89 C61.95,181.28 61.65,180.40 60.92,179.95 C59.85,179.29 59.97,178.68 61.54,176.91 C62.94,175.34 63.14,174.58 62.25,174.27 C61.56,174.03 61.00,172.71 61.00,171.33 C61.00,169.77 60.53,169.00 59.75,169.27 C59.06,169.51 58.63,170.42 58.78,171.30 C59.18,173.58 55.31,175.50 53.44,173.95 C52.65,173.29 52.00,171.91 52.00,170.88 C52.00,169.84 51.37,169.00 50.59,169.00 C49.73,169.00 49.37,169.70 49.66,170.82 C49.92,171.82 49.42,173.24 48.54,173.96 C47.09,175.17 47.10,175.45 48.64,177.16 C50.24,178.92 50.23,179.12 48.42,180.48 C46.65,181.82 46.85,181.93 51.00,181.90 C54.96,181.87 55.23,181.74 53.25,180.78 C50.61,179.51 50.31,177.48 52.64,176.58 C56.33,175.17 59.96,178.67 56.82,180.61 C56.00,181.12 56.24,181.58 57.57,182.10 C60.30,183.17 60.79,183.15 61.57,181.89 ZM 193.37 182.01 C194.92,182.00 195.03,181.74 194.01,180.51 C193.33,179.69 193.08,178.23 193.45,177.26 C194.39,174.82 194.25,174.49 192.25,174.55 C190.46,174.59 190.34,175.19 191.52,178.21 C192.01,179.48 191.53,180.08 189.65,180.55 C186.25,181.41 184.71,180.28 185.42,177.45 C186.13,174.65 184.74,173.60 181.45,174.42 C179.31,174.96 179.16,175.28 180.23,176.99 C181.88,179.64 180.03,181.48 176.57,180.61 C174.15,180.00 172.84,177.00 175.00,177.00 C175.55,177.00 176.00,176.32 176.00,175.50 C176.00,174.50 175.00,174.00 173.00,174.00 C169.70,174.00 169.18,175.07 171.53,177.02 C172.89,178.15 172.88,178.47 171.45,180.06 C169.98,181.68 169.99,181.85 171.67,182.19 C172.68,182.39 177.55,182.44 182.50,182.29 C187.45,182.15 192.34,182.02 193.37,182.01 ZM 33.45 180.59 C32.39,179.81 31.17,179.39 30.74,179.66 C29.40,180.49 31.02,182.00 33.25,182.00 C35.33,182.00 35.34,181.97 33.45,180.59 ZM 43.82 180.66 C42.67,179.79 42.43,178.93 43.06,177.94 C43.56,177.15 43.98,176.18 43.98,175.79 C44.01,174.43 40.40,173.13 39.01,173.99 C37.84,174.72 37.84,175.10 39.00,176.50 C40.09,177.82 40.13,178.56 39.18,180.08 C38.08,181.85 38.28,182.00 41.74,181.97 C45.00,181.94 45.28,181.77 43.82,180.66 ZM 165.46 179.58 C164.01,177.37 164.02,177.09 165.55,176.23 C166.94,175.45 166.98,175.21 165.77,174.74 C163.36,173.82 162.23,175.32 162.74,178.75 C163.09,181.11 163.75,182.00 165.14,182.00 C166.93,182.00 166.95,181.85 165.46,179.58 ZM 204.13 180.38 C201.99,178.88 201.69,178.88 200.19,180.38 C198.70,181.87 198.88,182.00 202.51,182.00 C206.42,182.00 206.43,181.99 204.13,180.38 ZM 71.00 177.50 C73.08,174.99 70.59,172.90 67.01,174.15 C64.30,175.09 64.23,175.24 65.82,176.99 C67.91,179.29 69.40,179.43 71.00,177.50 ZM 147.80 175.79 C148.19,173.76 145.25,172.69 143.58,174.25 C142.50,175.26 142.55,175.69 143.88,176.70 C145.86,178.21 147.40,177.85 147.80,175.79 ZM 33.00 175.98 C34.33,175.11 34.33,174.89 33.00,174.03 C32.03,173.41 31.38,173.41 31.16,174.04 C30.98,174.57 30.42,174.76 29.91,174.45 C29.41,174.14 29.00,174.58 29.00,175.44 C29.00,177.21 30.77,177.45 33.00,175.98 ZM 205.62 175.23 C208.06,173.23 209.43,169.00 207.63,169.00 C206.97,169.00 205.93,170.35 205.31,172.00 C204.68,173.65 203.46,175.00 202.59,175.00 C201.71,175.00 201.00,175.45 201.00,176.00 C201.00,177.53 203.26,177.15 205.62,175.23 ZM 93.84 174.70 C94.43,173.98 94.66,172.41 94.34,171.20 C93.99,169.85 94.22,169.00 94.94,169.00 C95.59,169.00 95.84,168.55 95.50,168.00 C95.16,167.45 94.00,167.00 92.92,167.00 C91.37,167.00 91.08,167.48 91.55,169.32 C91.92,170.80 91.56,172.12 90.56,172.95 C89.70,173.66 89.00,174.64 89.00,175.12 C89.00,176.48 92.62,176.16 93.84,174.70 ZM 122.85 174.68 C123.66,173.71 123.64,173.04 122.78,172.18 C121.87,171.27 121.88,170.72 122.80,169.80 C123.46,169.14 124.00,168.29 124.00,167.91 C124.00,166.76 120.84,165.91 118.89,166.54 C117.34,167.03 117.24,167.42 118.28,169.09 C119.27,170.70 119.22,171.24 118.00,172.01 C115.73,173.46 114.48,172.58 114.68,169.69 C114.81,167.86 114.26,166.90 112.83,166.45 C109.80,165.48 108.13,167.64 110.54,169.41 C112.45,170.80 112.45,170.85 110.49,173.06 L 108.50 175.30 L 113.02 174.70 C115.51,174.37 118.21,174.52 119.02,175.04 C121.00,176.29 121.56,176.23 122.85,174.68 ZM 105.56 170.85 C105.83,167.80 105.53,167.11 103.70,166.63 C102.42,166.30 100.90,166.67 100.04,167.53 C98.88,168.69 98.85,169.00 99.91,169.00 C100.87,169.00 101.08,169.87 100.64,172.07 C100.07,174.91 100.21,175.11 102.63,174.82 C104.84,174.55 105.29,173.94 105.56,170.85 ZM 133.32 174.35 C133.68,173.99 133.19,173.09 132.23,172.35 C130.60,171.08 130.62,170.91 132.50,169.46 C134.21,168.14 134.28,167.79 133.00,166.98 C130.09,165.14 128.49,166.41 127.60,171.25 C126.93,174.87 127.01,175.00 129.79,175.00 C131.37,175.00 132.96,174.71 133.32,174.35 ZM 8.15 166.75 C6.73,165.33 4.75,166.92 5.53,168.85 C5.89,169.76 6.34,171.18 6.52,172.00 C6.70,172.82 6.92,173.73 7.01,174.00 C7.11,174.27 7.62,172.98 8.15,171.11 C8.79,168.91 8.79,167.39 8.15,166.75 ZM 17.50 163.00 C17.84,162.45 17.42,162.00 16.56,162.00 C15.70,162.00 15.00,162.45 15.00,163.00 C15.00,163.55 15.42,164.00 15.94,164.00 C16.46,164.00 17.16,163.55 17.50,163.00 ZM 31.58 161.36 C31.34,160.74 31.82,159.28 32.63,158.11 C34.01,156.15 33.95,156.00 31.81,155.98 C30.54,155.98 28.87,155.57 28.09,155.08 C26.24,153.91 23.00,155.92 23.00,158.24 C23.00,159.21 22.55,160.00 22.00,160.00 C21.45,160.00 21.00,160.66 21.00,161.48 C21.00,162.63 22.22,162.90 26.51,162.73 C30.13,162.58 31.87,162.11 31.58,161.36 ZM 61.34 161.45 C60.66,159.68 57.87,159.88 57.25,161.75 C56.99,162.53 57.79,163.00 59.39,163.00 C61.28,163.00 61.78,162.60 61.34,161.45 ZM 70.32 160.41 C70.22,159.37 70.66,158.21 71.28,157.83 C72.08,157.33 71.90,156.54 70.66,155.18 C69.04,153.39 69.03,153.11 70.52,151.62 C71.41,150.73 73.01,150.00 74.07,150.00 C75.13,150.00 76.00,149.57 76.00,149.05 C76.00,148.52 74.09,148.12 71.75,148.14 C69.41,148.17 64.35,148.01 60.50,147.78 C56.65,147.56 52.26,147.71 50.75,148.12 C48.84,148.63 47.55,148.40 46.50,147.36 C45.17,146.02 44.83,146.02 43.50,147.36 C41.51,149.35 41.61,150.00 43.92,150.00 C47.12,150.00 49.00,151.12 49.00,153.02 C49.00,154.02 48.44,155.02 47.75,155.25 C46.78,155.58 46.80,156.04 47.87,157.34 C49.49,159.29 51.14,159.46 52.78,157.82 C53.57,157.03 53.63,156.25 52.96,155.45 C50.74,152.78 52.97,151.16 58.83,151.20 C61.95,151.22 65.29,151.44 66.25,151.68 C68.16,152.18 68.70,155.00 66.88,155.00 C66.19,155.00 66.02,155.86 66.43,157.25 C66.99,159.14 67.58,161.34 67.92,162.83 C67.97,163.02 68.56,162.97 69.25,162.73 C69.94,162.48 70.42,161.44 70.32,160.41 ZM 60.87 157.66 C62.18,156.08 61.38,155.00 58.89,155.00 C56.53,155.00 55.39,157.00 57.12,158.10 C59.00,159.29 59.57,159.22 60.87,157.66 ZM 84.86 156.00 C85.07,156.00 85.00,155.10 84.71,154.00 C84.38,152.76 84.82,151.64 85.84,151.05 C87.38,150.18 87.38,150.00 85.85,148.44 C83.71,146.28 81.68,147.54 82.27,150.65 C82.75,153.12 79.60,156.49 77.84,155.40 C76.90,154.82 76.68,156.35 77.58,157.24 C77.89,157.56 79.58,157.41 81.32,156.91 C83.06,156.41 84.65,156.00 84.86,156.00 ZM 121.14 156.01 C122.28,156.00 122.93,154.86 123.26,152.25 C123.82,147.83 122.98,146.55 120.10,147.47 C118.74,147.90 118.00,148.98 118.00,150.51 C118.00,151.81 117.53,153.17 116.96,153.53 C115.33,154.53 113.15,152.14 113.72,149.98 C114.31,147.69 111.46,146.14 109.78,147.82 C108.99,148.61 109.03,149.33 109.93,150.41 C110.61,151.23 110.88,152.79 110.54,153.88 C110.03,155.48 110.45,155.94 112.71,156.30 C114.24,156.54 116.40,156.58 117.50,156.38 C118.60,156.19 120.24,156.02 121.14,156.01 ZM 95.36 154.78 C94.95,154.11 94.70,152.30 94.82,150.75 C95.07,147.45 92.58,145.99 90.40,148.17 C89.15,149.43 89.16,150.02 90.55,152.81 C91.54,154.79 92.90,156.00 94.13,156.00 C95.44,156.00 95.86,155.58 95.36,154.78 ZM 141.75 154.14 C141.48,153.12 141.65,151.60 142.12,150.75 C143.38,148.51 140.53,146.31 138.52,147.98 C137.44,148.88 137.31,149.71 138.02,151.04 C138.67,152.26 138.66,153.09 137.99,153.51 C136.46,154.45 137.83,156.00 140.18,156.00 C141.69,156.00 142.10,155.51 141.75,154.14 ZM 171.66 154.54 C170.41,153.60 170.03,152.48 170.47,151.08 C170.84,149.92 170.53,148.17 169.76,147.07 C168.44,145.19 168.36,145.19 167.25,146.98 C166.33,148.44 166.41,149.09 167.59,150.07 C168.42,150.76 168.84,151.96 168.54,152.75 C167.75,154.80 168.79,156.00 171.31,155.97 C173.40,155.94 173.41,155.87 171.66,154.54 ZM 151.67 148.58 C150.97,146.76 150.10,146.63 148.00,148.03 C146.69,148.91 146.72,149.20 148.23,150.37 C149.19,151.10 149.82,151.93 149.64,152.22 C149.46,152.51 149.98,152.17 150.79,151.45 C151.61,150.74 152.00,149.45 151.67,148.58 ZM 29.00 148.91 C29.00,148.45 28.09,147.59 26.99,146.99 C25.40,146.14 24.84,146.24 24.37,147.47 C23.48,149.79 25.90,152.33 27.63,150.89 C28.38,150.27 29.00,149.38 29.00,148.91 ZM 17.99 147.97 C16.25,146.87 14.78,147.17 14.26,148.73 C13.79,150.12 17.16,150.95 18.49,149.79 C19.13,149.23 18.95,148.58 17.99,147.97 ZM 38.24 148.05 C38.09,147.42 37.88,145.81 37.77,144.46 C37.66,143.10 37.08,142.00 36.49,142.00 C34.85,142.00 32.10,148.70 33.27,149.87 C34.50,151.10 38.60,149.61 38.24,148.05 ZM 132.73 149.31 C133.10,148.21 130.08,146.59 129.23,147.43 C128.97,147.70 129.03,148.65 129.38,149.54 C130.04,151.26 132.13,151.11 132.73,149.31 ZM 161.75 149.25 C162.30,147.61 159.16,146.44 157.82,147.78 C157.24,148.36 157.09,149.34 157.48,149.97 C158.36,151.40 161.19,150.92 161.75,149.25 ZM 9.00 149.06 C9.00,148.54 8.55,147.84 8.00,147.50 C7.45,147.16 7.00,147.58 7.00,148.44 C7.00,149.30 7.45,150.00 8.00,150.00 C8.55,150.00 9.00,149.58 9.00,149.06 ZM 28.57 142.23 C27.66,141.33 24.87,142.98 25.53,144.04 C25.97,144.77 26.63,144.72 27.61,143.91 C28.40,143.25 28.83,142.50 28.57,142.23 ZM 46.50 144.00 C46.84,143.45 46.42,143.00 45.56,143.00 C44.70,143.00 44.00,143.45 44.00,144.00 C44.00,144.55 44.42,145.00 44.94,145.00 C45.46,145.00 46.16,144.55 46.50,144.00 ZM 84.52 135.03 C84.19,134.49 84.64,132.96 85.51,131.62 C86.57,130.01 86.75,128.97 86.05,128.53 C85.47,128.18 85.00,126.78 85.00,125.44 C85.00,123.71 84.45,123.00 83.11,123.00 C81.68,123.00 81.10,123.91 80.74,126.75 C80.48,128.81 80.65,130.93 81.13,131.45 C81.61,131.97 82.00,133.21 82.00,134.20 C82.00,135.19 82.70,136.00 83.56,136.00 C84.42,136.00 84.85,135.56 84.52,135.03 ZM 94.10 131.25 C95.16,123.42 94.63,121.44 91.75,122.54 C90.82,122.90 90.29,124.65 90.25,127.55 C90.19,131.29 90.49,132.00 92.09,132.00 C93.14,132.00 94.05,131.66 94.10,131.25 ZM 76.00 130.17 C76.00,129.71 75.66,128.99 75.25,128.58 C74.84,128.16 74.50,126.85 74.50,125.66 C74.50,124.21 73.79,123.40 72.35,123.19 C70.49,122.93 70.21,123.34 70.35,126.19 C70.43,128.01 70.95,129.83 71.50,130.23 C72.87,131.24 76.00,131.19 76.00,130.17 ZM 236.46 210.94 C236.11,210.36 236.10,208.73 236.46,207.32 C237.07,204.86 236.96,204.78 233.63,205.41 C229.44,206.19 228.55,204.22 230.97,199.50 C233.65,194.26 237.30,193.36 239.17,197.48 C240.04,199.39 240.83,199.83 242.57,199.39 C244.15,199.00 245.12,199.38 245.78,200.66 C246.95,202.93 246.30,205.00 244.42,205.00 C243.64,205.00 243.00,205.86 243.00,206.92 C243.00,210.33 241.84,212.00 239.45,212.00 C238.17,212.00 236.82,211.52 236.46,210.94 ZM 225.50 199.00 C224.67,197.66 225.78,196.00 227.50,196.00 C229.54,196.00 230.47,198.09 228.88,199.10 C227.07,200.24 226.25,200.22 225.50,199.00 ZM 175.00 198.00 C175.00,197.45 175.68,197.00 176.50,197.00 C177.32,197.00 178.00,197.45 178.00,198.00 C178.00,198.55 177.32,199.00 176.50,199.00 C175.68,199.00 175.00,198.55 175.00,198.00 ZM 593.25 192.50 C591.80,190.85 591.56,188.61 592.93,189.46 C593.44,189.77 594.14,189.58 594.49,189.02 C594.84,188.46 596.22,188.00 597.56,188.00 C599.60,188.00 600.00,188.49 600.00,191.00 C600.00,193.62 599.65,194.00 597.25,193.96 C595.74,193.94 593.94,193.29 593.25,192.50 ZM 322.50 191.00 C320.83,188.30 325.77,186.82 327.90,189.38 C328.79,190.45 328.69,190.91 327.44,191.38 C325.09,192.28 323.20,192.14 322.50,191.00 ZM 222.00 171.50 C222.00,170.47 222.66,169.98 223.75,170.19 C225.86,170.60 225.72,172.37 223.55,172.82 C222.65,173.01 222.00,172.46 222.00,171.50 ZM 57.36 128.49 C57.04,127.66 57.34,126.29 58.03,125.46 C59.15,124.12 59.49,124.14 61.14,125.63 C62.55,126.90 62.72,127.63 61.87,128.65 C60.38,130.45 58.08,130.36 57.36,128.49 ZM 389.64 190.50 C390.27,188.87 393.54,188.45 394.44,189.90 C395.02,190.84 392.81,192.00 390.45,192.00 C389.63,192.00 389.30,191.39 389.64,190.50 Z" fill="rgb(252,252,252)"/>
</g>
</svg>